<?xml version="1.0" encoding="UTF-8"?>
<svg width="24px" height="24px" viewBox="0 0 24 24" version="1.1" xmlns="http://www.w3.org/2000/svg" xmlns:xlink="http://www.w3.org/1999/xlink">
    <!-- Generator: Sketch 58 (84663) - https://sketch.com -->
    <title>contact us</title>
    <desc>Created with Sketch.</desc>
    <g id="contact-us" stroke="none" stroke-width="1" fill="none" fill-rule="evenodd">
        <g id="Group-8" transform="translate(2.000000, 2.000000)" fill="#4A4A4A">
            <g id="Group-6" opacity="0">
                <rect id="Rectangle" opacity="0.502534412" x="0" y="0" width="20" height="20"></rect>
            </g>
            <g id="telephone-(1)" transform="translate(1.666667, 1.666667)" fill-rule="nonzero">
                <path d="M2.43885456,1.9355392 C2.63893787,1.73532466 2.96453077,1.73529042 3.16464828,1.9355392 L5.34209784,4.11441708 C5.54266006,4.31511086 5.54266006,4.63995888 5.34209784,4.84068689 L4.97918388,5.2038389 L2.0759406,2.29869122 L2.43885456,1.9355392 Z M7.59665251,15.074358 L1.64703917,9.13237766 C-0.0174253964,7.46682127 -0.111531939,4.81617781 1.36400118,3.03885864 L4.25681097,5.933566 C3.49889583,6.79326653 3.52557817,8.10696698 4.3529358,8.93490155 L7.79495699,12.3676449 C8.61752548,13.1907529 9.93046739,13.2252231 10.7937093,12.4632166 L13.6867244,15.3581293 C11.917754,16.8317892 9.27401354,16.7527851 7.59665251,15.074358 Z M14.7891837,14.2823997 L14.4262698,14.6455518 L11.5230265,11.7404041 L11.8859062,11.3772863 C12.0865027,11.1765583 12.4111035,11.1765583 12.6117342,11.3772863 L14.7891837,13.5561299 C14.9893012,13.7563445 14.9893012,14.0821852 14.7891837,14.2823997 Z" id="Shape"></path>
                <path d="M16.386156,5.26081991 C16.386156,5.56251646 16.140686,5.80794348 15.8389815,5.80794348 L12.5561532,5.80794348 C12.4110447,5.80794348 12.2718806,5.8655623 12.1692945,5.96818216 L10.914739,7.22270444 L10.914739,6.35506704 C10.914739,6.05289642 10.6697796,5.80794348 10.367601,5.80794348 L9.27332491,5.80794348 C8.97162038,5.80794348 8.72618686,5.56251646 8.72618686,5.26081991 L8.72618686,0.883831402 C8.72618686,0.582134858 8.97162038,0.336707838 9.27332491,0.336707838 L15.8390179,0.336707838 C16.1407225,0.336707838 16.386156,0.582134858 16.386156,0.883831402 L16.386156,5.26081991 L16.386156,5.26081991 Z" id="Shape"></path>
            </g>
        </g>
    </g>
</svg>