<?xml version="1.0" encoding="UTF-8"?>
<svg width="20px" height="20px" viewBox="0 0 20 20" version="1.1" xmlns="http://www.w3.org/2000/svg" xmlns:xlink="http://www.w3.org/1999/xlink">
    <!-- Generator: Sketch 58 (84663) - https://sketch.com -->
    <title>cp-home-filter-filter</title>
    <desc>Created with Sketch.</desc>
    <g id="cp-home-filter-filter" stroke="none" stroke-width="1" fill="none" fill-rule="evenodd">
        <g id="filters">
            <circle id="Oval" fill="#472DC2" cx="10" cy="10" r="10"></circle>
            <path d="M13.967439,6.22161525 C13.903021,6.07393145 13.7915367,6 13.6324495,6 L6.36897813,6 C6.21010957,6 6.0984663,6.07393145 6.03414769,6.22161525 C5.96986883,6.37686135 5.99632373,6.50952004 6.11363166,6.61933263 L8.91131238,9.42042916 L8.91131238,12.1817639 C8.91131238,12.2803723 8.94726799,12.365488 9.0191196,12.4375687 L10.4717542,13.8919785 C10.5399089,13.9639 10.6249979,14 10.7271802,14 C10.7725372,14 10.8198022,13.9904675 10.8689952,13.9715419 C11.0165941,13.9071031 11.0904134,13.7953999 11.0904134,13.636313 L11.0904134,9.42044906 L13.8879948,6.61935253 C14.0053424,6.50953994 14.0317377,6.37692105 13.967439,6.22161525 Z" id="Path" fill="#FFFFFF"></path>
        </g>
    </g>
</svg>