<?xml version="1.0" encoding="UTF-8"?>
<svg width="137px" height="22px" viewBox="0 0 137 22" version="1.1" xmlns="http://www.w3.org/2000/svg" xmlns:xlink="http://www.w3.org/1999/xlink">
    <!-- Generator: Sketch 57.1 (83088) - https://sketch.com -->
    <title>dark_tj</title>
    <desc>Created with Sketch.</desc>
    <g id="Combined" stroke="none" stroke-width="1" fill="none" fill-rule="evenodd">
        <g id="2---Choose-Language" transform="translate(-20.000000, -51.000000)" fill="#FFFFFF" fill-rule="nonzero">
            <g id="Group-21">
                <g id="dark_tj" transform="translate(20.000000, 51.000000)">
                    <g id="tj-ems">
                        <g id="tj-logo-04">
                            <path d="M13.1667831,12.2067647 L12.5215014,11.5726471 L11.8230789,10.8798735 C11.6015015,10.6625482 11.2698987,10.6220043 11.0062282,10.78 C10.9638239,10.8054825 10.9249933,10.8369573 10.8908366,10.8735323 C10.8611932,10.8999645 10.8355925,10.9309715 10.8149211,10.9654794 C10.6439071,11.2121255 10.6649409,11.550869 10.8650253,11.7723941 L10.8908366,11.7993441 L12.2345408,13.1325765 C12.4970277,13.3883051 12.9042962,13.3883051 13.1667831,13.1325765 C13.2894324,13.0126828 13.3590332,12.8450956 13.3590332,12.6696706 C13.3590332,12.4942456 13.2894324,12.3266584 13.1667831,12.2067647 Z M13.1667831,12.2067647 L12.5215014,11.5726471 L11.8230789,10.8798735 C11.6015015,10.6625482 11.2698987,10.6220043 11.0062282,10.78 C10.9638239,10.8054825 10.9249933,10.8369573 10.8908366,10.8735323 C10.8611932,10.8999645 10.8355925,10.9309715 10.8149211,10.9654794 C10.6439071,11.2121255 10.6649409,11.550869 10.8650253,11.7723941 L10.8908366,11.7993441 L12.2345408,13.1325765 C12.4970277,13.3883051 12.9042962,13.3883051 13.1667831,13.1325765 C13.2894324,13.0126828 13.3590332,12.8450956 13.3590332,12.6696706 C13.3590332,12.4942456 13.2894324,12.3266584 13.1667831,12.2067647 Z M13.1667831,12.2067647 L12.5215014,11.5726471 L11.8230789,10.8798735 C11.6015015,10.6625482 11.2698987,10.6220043 11.0062282,10.78 C10.9638239,10.8054825 10.9249933,10.8369573 10.8908366,10.8735323 C10.8611932,10.8999645 10.8355925,10.9309715 10.8149211,10.9654794 C10.6439071,11.2121255 10.6649409,11.550869 10.8650253,11.7723941 L10.8908366,11.7993441 L12.2345408,13.1325765 C12.4970277,13.3883051 12.9042962,13.3883051 13.1667831,13.1325765 C13.2894324,13.0126828 13.3590332,12.8450956 13.3590332,12.6696706 C13.3590332,12.4942456 13.2894324,12.3266584 13.1667831,12.2067647 Z M13.1667831,12.2067647 L12.5215014,11.5726471 L11.8230789,10.8798735 C11.6015015,10.6625482 11.2698987,10.6220043 11.0062282,10.78 C10.9638239,10.8054825 10.9249933,10.8369573 10.8908366,10.8735323 C10.8611932,10.8999645 10.8355925,10.9309715 10.8149211,10.9654794 C10.6439071,11.2121255 10.6649409,11.550869 10.8650253,11.7723941 L10.8908366,11.7993441 L12.2345408,13.1325765 C12.4970277,13.3883051 12.9042962,13.3883051 13.1667831,13.1325765 C13.2894324,13.0126828 13.3590332,12.8450956 13.3590332,12.6696706 C13.3590332,12.4942456 13.2894324,12.3266584 13.1667831,12.2067647 Z M13.1667831,12.2067647 L12.5215014,11.5726471 L11.8230789,10.8798735 C11.6015015,10.6625482 11.2698987,10.6220043 11.0062282,10.78 C10.9638239,10.8054825 10.9249933,10.8369573 10.8908366,10.8735323 C10.8611932,10.8999645 10.8355925,10.9309715 10.8149211,10.9654794 C10.6439071,11.2121255 10.6649409,11.550869 10.8650253,11.7723941 L10.8908366,11.7993441 L12.2345408,13.1325765 C12.4970277,13.3883051 12.9042962,13.3883051 13.1667831,13.1325765 C13.2894324,13.0126828 13.3590332,12.8450956 13.3590332,12.6696706 C13.3590332,12.4942456 13.2894324,12.3266584 13.1667831,12.2067647 Z M19.1565155,15.0063941 C18.9798278,15.3520358 18.7815115,15.6851413 18.5628564,16.0035441 C18.5645464,16.0075874 18.5645464,16.0121832 18.5628564,16.0162265 L18.5628564,16.0162265 C18.4095534,16.270229 18.1568029,16.4407498 17.8720253,16.4823029 C17.6438474,16.5072241 17.4167259,16.426051 17.2510366,16.2603617 L15.4761324,14.4895883 C16.1844112,13.7332848 16.5834731,12.7191854 16.5890535,11.6614235 C16.5886315,10.536415 16.1397531,9.46235233 15.3501127,8.69692353 L14.6471352,7.99780881 L14.6471352,7.99780881 L12.8251634,6.19691472 C12.013161,5.40459506 10.9424426,4.9652361 9.83105636,4.96821481 C8.7206621,4.96070705 7.650291,5.40081621 6.84302252,6.19691472 L6.1749662,6.86432353 C5.86935408,7.168216 5.60979113,7.51887743 5.40518308,7.90427647 L5.40518308,7.90427647 C5.09511992,8.49398422 4.93319086,9.15609583 4.93449907,9.82882353 C4.93697032,10.9537114 5.38613931,12.0271538 6.1749662,12.7933235 L6.8202479,13.4369529 L8.69687887,15.2996735 C9.37388637,15.9639271 10.2392066,16.3806257 11.1626141,16.4870588 C11.3375236,16.5079334 11.5134193,16.5185188 11.6894676,16.5187647 C12.7359039,16.5241931 13.748624,16.1326682 14.5393352,15.4169853 L16.3096845,17.1861735 C16.7085762,17.5784906 17.2359713,17.7968274 17.7839634,17.7965121 C17.8600807,17.7965121 17.9361266,17.7916418 18.0117098,17.7822441 C18.6780143,17.7037986 19.2773525,17.3227631 19.6499662,16.7407059 L19.6499662,16.7407059 L19.6499662,16.7407059 C19.6499662,16.7407059 19.6499662,16.7407059 19.6499662,16.7280235 L19.6499662,16.7280235 C19.8887495,16.3712065 20.1082348,16.0007261 20.3073944,15.6183177 L19.1565155,15.0063941 Z M15.0100113,12.8630765 C14.8615008,13.18137 14.6593864,13.4691886 14.4133155,13.7127941 L13.7452592,14.3770323 C13.0276449,15.064698 12.0389747,15.3538328 11.083662,15.1554117 C10.539113,15.0443451 10.0358447,14.7744639 9.63215774,14.3770323 L7.91646759,12.6823529 L7.10720846,11.8786088 C6.56165224,11.3493405 6.25237087,10.6063805 6.25390229,9.82882353 C6.25236564,9.36758478 6.36368476,8.91357742 6.57731831,8.50985881 C6.57731831,8.50985881 6.57731831,8.50985881 6.57731831,8.50985881 C6.71664638,8.24327618 6.89490877,8.00099027 7.10569015,7.7917206 L7.77526477,7.13382353 C8.51397224,6.41574234 9.54706135,6.12972325 10.5294789,6.37129706 C11.0430461,6.4906105 11.5155837,6.75429726 11.8959577,7.13382353 L13.5493972,8.77301766 L14.420907,9.63700294 C15.2760652,10.4625787 15.5178104,11.7728006 15.0176028,12.8710029 L15.0100113,12.8630765 Z M12.5215014,11.5726471 L11.8230789,10.8798735 C11.6015015,10.6625482 11.2698987,10.6220043 11.0062282,10.78 C10.9638239,10.8054825 10.9249933,10.8369573 10.8908366,10.8735323 C10.8611932,10.8999645 10.8355925,10.9309715 10.8149211,10.9654794 C10.6439071,11.2121255 10.6649409,11.550869 10.8650253,11.7723941 L10.8908366,11.7993441 L12.2345408,13.1325765 C12.4970277,13.3883051 12.9042962,13.3883051 13.1667831,13.1325765 C13.2889412,13.0127248 13.3582238,12.8454854 13.3582238,12.6704633 C13.3582238,12.495441 13.2889412,12.3282017 13.1667831,12.20835 L12.5215014,11.5726471 Z M13.1667831,12.2067647 L12.5215014,11.5726471 L11.8230789,10.8798735 C11.6015015,10.6625482 11.2698987,10.6220043 11.0062282,10.78 C10.9638239,10.8054825 10.9249933,10.8369573 10.8908366,10.8735323 C10.8611932,10.8999645 10.8355925,10.9309715 10.8149211,10.9654794 C10.6439071,11.2121255 10.6649409,11.550869 10.8650253,11.7723941 L10.8908366,11.7993441 L12.2345408,13.1325765 C12.4970277,13.3883051 12.9042962,13.3883051 13.1667831,13.1325765 C13.2894324,13.0126828 13.3590332,12.8450956 13.3590332,12.6696706 C13.3590332,12.4942456 13.2894324,12.3266584 13.1667831,12.2067647 Z M13.1667831,12.2067647 L12.5215014,11.5726471 L11.8230789,10.8798735 C11.6015015,10.6625482 11.2698987,10.6220043 11.0062282,10.78 C10.9638239,10.8054825 10.9249933,10.8369573 10.8908366,10.8735323 C10.8611932,10.8999645 10.8355925,10.9309715 10.8149211,10.9654794 C10.6439071,11.2121255 10.6649409,11.550869 10.8650253,11.7723941 L10.8908366,11.7993441 L12.2345408,13.1325765 C12.4970277,13.3883051 12.9042962,13.3883051 13.1667831,13.1325765 C13.2894324,13.0126828 13.3590332,12.8450956 13.3590332,12.6696706 C13.3590332,12.4942456 13.2894324,12.3266584 13.1667831,12.2067647 Z M13.1667831,12.2067647 L12.5215014,11.5726471 L11.8230789,10.8798735 C11.6015015,10.6625482 11.2698987,10.6220043 11.0062282,10.78 C10.9638239,10.8054825 10.9249933,10.8369573 10.8908366,10.8735323 C10.8611932,10.8999645 10.8355925,10.9309715 10.8149211,10.9654794 C10.6439071,11.2121255 10.6649409,11.550869 10.8650253,11.7723941 L10.8908366,11.7993441 L12.2345408,13.1325765 C12.4970277,13.3883051 12.9042962,13.3883051 13.1667831,13.1325765 C13.2894324,13.0126828 13.3590332,12.8450956 13.3590332,12.6696706 C13.3590332,12.4942456 13.2894324,12.3266584 13.1667831,12.2067647 Z M13.1667831,12.2067647 L12.5215014,11.5726471 L11.8230789,10.8798735 C11.6015015,10.6625482 11.2698987,10.6220043 11.0062282,10.78 C10.9638239,10.8054825 10.9249933,10.8369573 10.8908366,10.8735323 C10.8611932,10.8999645 10.8355925,10.9309715 10.8149211,10.9654794 C10.6439071,11.2121255 10.6649409,11.550869 10.8650253,11.7723941 L10.8908366,11.7993441 L12.2345408,13.1325765 C12.4970277,13.3883051 12.9042962,13.3883051 13.1667831,13.1325765 C13.2894324,13.0126828 13.3590332,12.8450956 13.3590332,12.6696706 C13.3590332,12.4942456 13.2894324,12.3266584 13.1667831,12.2067647 Z M13.1667831,12.2067647 L12.5215014,11.5726471 L11.8230789,10.8798735 C11.6015015,10.6625482 11.2698987,10.6220043 11.0062282,10.78 C10.9638239,10.8054825 10.9249933,10.8369573 10.8908366,10.8735323 C10.8611932,10.8999645 10.8355925,10.9309715 10.8149211,10.9654794 C10.6439071,11.2121255 10.6649409,11.550869 10.8650253,11.7723941 L10.8908366,11.7993441 L12.2345408,13.1325765 C12.4970277,13.3883051 12.9042962,13.3883051 13.1667831,13.1325765 C13.2894324,13.0126828 13.3590332,12.8450956 13.3590332,12.6696706 C13.3590332,12.4942456 13.2894324,12.3266584 13.1667831,12.2067647 Z" id="Shape"></path>
                            <path d="M20.3256141,15.6199029 L19.1565155,15.01115 C20.1183331,13.1761317 20.4270663,11.0448901 20.0280253,8.99495881 C19.7757983,7.67230064 19.2412637,6.42602 18.4641662,5.34878234 L19.5482394,4.60052353 C20.4244472,5.82665956 21.029572,7.24027234 21.320107,8.73972647 C21.781177,11.0836713 21.428667,13.5224326 20.3256141,15.6199029 L20.3256141,15.6199029 Z" id="Path"></path>
                            <path d="M19.5482394,4.60686472 L18.4641662,5.35512353 C16.6239747,2.77426471 13.5220676,1.21750588 10.2273352,1.40457059 L10.1453465,0.103044117 C13.9107549,-0.115726471 17.4484169,1.65821765 19.5482394,4.60686472 Z" id="Path"></path>
                            <path d="M10.2273352,1.40457059 C9.81171259,1.43174946 9.39800347,1.48468585 8.98839436,1.5631 C6.22263778,2.06237544 3.81618316,3.82819016 2.42929577,6.37605294 L1.26171549,5.77681174 C2.83959911,2.86308041 5.58761236,0.843548059 8.74698308,0.275841177 C9.2101269,0.187220186 9.67820867,0.129504222 10.1483831,0.103044117 L10.2273352,1.40457059 Z" id="Path"></path>
                            <path d="M3.01536338,16.0875647 L1.93736338,16.8389941 C1.07811624,15.625727 0.485110626,14.2298937 0.200416902,12.7505206 C-0.258381601,10.3675894 0.118843356,7.89185254 1.2632338,5.77522647 L2.42929577,6.37605294 C1.42313449,8.23671363 1.09169679,10.4132338 1.49553521,12.5079706 C1.74429784,13.8032033 2.26319555,15.0253435 3.01536338,16.0875647 L3.01536338,16.0875647 Z" id="Path"></path>
                            <path d="M11.4192085,20.7673529 C11.415299,20.9473587 11.3420621,21.1181201 11.2160528,21.2410366 C11.0900436,21.3639532 10.9219011,21.428647 10.7496338,21.4204941 C7.14820282,21.4204941 3.8959831,19.6370383 1.94343662,16.84375 L3.02143662,16.0923206 C4.83970507,18.6374064 7.7086867,20.1281214 10.7496338,20.1078706 L10.760262,20.1078706 C10.9315274,20.103621 11.0973515,20.1708219 11.2210261,20.2945971 C11.3447008,20.4183723 11.4160245,20.5885121 11.4192085,20.7673529 Z" id="Path"></path>
                        </g>
                    </g>
                    <g id="tj-logo-04" transform="translate(27.280000, 0.000000)">
                        <g id="Group-57" transform="translate(0.029333, 0.159704)">
                            <path d="M4.74624273,17.1234311 C3.80612027,17.1234311 3.08106546,16.8572583 2.57107829,16.3249126 C2.06109113,15.7925669 1.8066299,15.0387654 1.80769459,14.0635081 L1.80769459,7.09244149 L0.453407183,7.09244149 C0.335631834,7.09428738 0.221520891,7.05149575 0.133999775,6.97266372 C0.0392345291,6.87747914 -0.00918912183,6.7456268 0.00144570098,6.61173335 L0.00144570098,5.70461628 L1.89553162,5.44110516 L2.40019533,1.96275852 C2.4235514,1.84458231 2.4859919,1.73770217 2.57746644,1.65932148 C2.67346559,1.58319192 2.79362043,1.54408492 2.91603829,1.54912593 L4.05312866,1.54912593 L4.05312866,5.46346372 L7.35420422,5.46346372 L7.35420422,7.09244149 L4.04833755,7.09244149 L4.04833755,13.9213719 C4.04833755,14.3813185 4.16013015,14.7198904 4.38690941,14.9498637 C4.61656624,15.1770117 4.92967781,15.2994834 5.25250348,15.2884355 C5.43420742,15.292428 5.6152268,15.2648698 5.78751087,15.2069867 C5.9210426,15.1612657 6.04948863,15.1018594 6.17079976,15.0297155 C6.27780124,14.964237 6.37042938,14.9051467 6.4470872,14.8508474 C6.50628937,14.8043323 6.57801888,14.7765302 6.65310496,14.7709955 C6.71704893,14.7671694 6.78031939,14.7858116 6.8319731,14.8236978 C6.88399892,14.8694768 6.92822918,14.9234161 6.96293013,14.9834015 L7.62889459,16.0614015 C7.24903331,16.4059174 6.8044064,16.6713906 6.32092124,16.8423526 C5.81664824,17.0279414 5.28358283,17.1230931 4.74624273,17.1234311 Z" id="Path"></path>
                            <path d="M19.3687138,15.2756593 C19.0915807,15.5982452 18.7687568,15.8785639 18.4104916,16.1077155 C18.0519654,16.3416815 17.6670791,16.5325165 17.2638191,16.6762607 C16.8556923,16.8215344 16.4349178,16.9284657 16.0069509,16.9956681 C15.5844572,17.0637351 15.1572616,17.0984447 14.7293212,17.0994755 C13.9649126,17.1072439 13.2060476,16.969022 12.4934694,16.6922311 C11.820336,16.4286974 11.2130792,16.0209523 10.7143701,15.4976474 C10.1943659,14.9391466 9.79769331,14.2774815 9.55013013,13.5556504 C9.2570936,12.693204 9.11552998,11.7865485 9.13170645,10.8758222 C9.1247787,10.1025705 9.25286661,9.33404309 9.51020422,8.60483554 C9.74795224,7.92946695 10.1164316,7.30755621 10.5945924,6.77463112 C11.0755643,6.24645688 11.6642854,5.82765348 12.3209894,5.54650963 C13.0464699,5.23657284 13.8286772,5.08154566 14.6175287,5.09135409 C15.2894399,5.08434951 15.9567432,5.2029692 16.5850783,5.44110516 C17.1704185,5.66421821 17.7009207,6.01062418 18.1405924,6.45682074 C18.5950509,6.92810699 18.9464024,7.48885526 19.1722783,8.10336591 C19.432251,8.81627688 19.5589259,9.57091269 19.545985,10.3296355 C19.545985,10.6745955 19.5076561,10.9045689 19.4309983,11.0243467 C19.3302575,11.1538166 19.1690744,11.2210772 19.0061865,11.2016178 L11.3579761,11.2016178 C11.3667502,11.819416 11.4674009,12.4324703 11.656622,13.020643 C11.8089973,13.4963476 12.0567973,13.9359752 12.3848709,14.3126459 C12.6882957,14.6521173 13.0674628,14.915291 13.4916176,15.0808207 C13.9504717,15.2550288 14.438197,15.3406517 14.9289509,15.3331526 C15.3652234,15.3412533 15.8002306,15.2836471 16.2193568,15.1622696 C16.5429819,15.0632497 16.8580886,14.9382751 17.1616087,14.788563 C17.4256521,14.6544119 17.6471079,14.529843 17.8259761,14.4148563 C17.966321,14.3137611 18.1324434,14.2545108 18.3050872,14.2439733 C18.4720544,14.2360116 18.6315734,14.3136642 18.728302,14.4499911 L19.3687138,15.2756593 Z M17.520942,9.8137926 C17.5249941,9.39679378 17.4607971,8.98194092 17.3308946,8.58567112 C17.2143279,8.2261604 17.0257731,7.89415189 16.7767227,7.60988149 C16.5285668,7.33378413 16.2226856,7.11568704 15.880785,6.97106665 C15.4952776,6.81166438 15.0809133,6.73390309 14.6638427,6.74269037 C13.7237203,6.74269037 12.9837598,7.01418665 12.4439612,7.55717926 C11.9041627,8.10017186 11.5618645,8.85397335 11.4170665,9.81858372 L17.520942,9.8137926 Z" id="Shape"></path>
                            <path d="M30.5815109,7.45976 C30.5227044,7.53462411 30.4551483,7.60218021 30.3802842,7.66098665 C30.2973753,7.71619226 30.1985988,7.74257004 30.0992057,7.7360474 C29.9594769,7.7297807 29.8253125,7.67946903 29.7159168,7.59231409 C29.5535114,7.4790071 29.384454,7.37554616 29.2096561,7.28248888 C28.9745645,7.1573905 28.7286944,7.05369746 28.4750191,6.97266372 C27.6416711,6.73893528 26.7536412,6.79524661 25.9564916,7.1323674 C25.5423278,7.32590496 25.1816203,7.61754088 24.9056412,7.98199112 C24.6078247,8.3841549 24.3908768,8.84028807 24.2668265,9.32509926 C24.1137522,9.90496087 24.0401481,10.5029274 24.0480324,11.1026015 C24.0414485,11.7153263 24.1204664,12.3259685 24.2827968,12.9168355 C24.4120454,13.4019192 24.6338433,13.8574454 24.935985,14.2583467 C25.2088415,14.6132155 25.5633011,14.8970023 25.9692679,15.0856119 C26.3947489,15.2770958 26.8570151,15.3730378 27.3235553,15.3666904 C27.7292442,15.3790156 28.1338523,15.3184326 28.5181391,15.1878222 C28.7914049,15.0895237 29.0528154,14.9609611 29.2974931,14.8045333 C29.4771379,14.6861623 29.6498975,14.557659 29.8149331,14.4196474 C29.9295875,14.3098192 30.0810319,14.2466225 30.239745,14.2423763 C30.4067122,14.2344146 30.5662311,14.3120672 30.6629598,14.4483941 L31.3017746,15.2740622 C31.0425554,15.5946051 30.7393103,15.8768812 30.4010457,16.1125067 C30.0703048,16.34089 29.7138453,16.5295724 29.3390161,16.6746637 C28.9585928,16.820982 28.564202,16.928008 28.1619998,16.9940711 C27.7509045,17.0631597 27.3347683,17.0978823 26.9179079,17.0978785 C26.2185327,17.1032668 25.5253157,16.9669051 24.8800887,16.6970222 C24.253354,16.4316573 23.6928073,16.0314226 23.2383346,15.524797 C22.7526516,14.973668 22.3803666,14.3322091 22.1427672,13.6370993 C21.8626491,12.8192422 21.7264806,11.9590034 21.7403138,11.0946163 C21.733188,10.2819136 21.8555637,9.47326371 22.1028412,8.69906074 C22.3245253,7.99966561 22.6876513,7.35332303 23.169662,6.80018372 C23.6508721,6.26108591 24.2445723,5.83421058 24.9088353,5.54970372 C25.6572828,5.23389271 26.4634091,5.07778053 27.2756442,5.09135409 C28.0296644,5.07663732 28.7790083,5.21293106 29.4795553,5.49221037 C30.1133312,5.75935488 30.6901225,6.14532798 31.1788027,6.62930074 L30.5815109,7.45976 Z" id="Path"></path>
                            <path d="M36.0896916,6.76025777 C36.5640405,6.27511641 37.1122254,5.86815517 37.7138783,5.55449484 C38.3497421,5.2377175 39.0525851,5.07885198 39.7628768,5.09135409 C40.3432602,5.07863932 40.9198884,5.18743711 41.4557361,5.41076149 C41.9264648,5.61369129 42.3444123,5.92182514 42.6774694,6.31149037 C43.0187111,6.72064356 43.2730201,7.19502775 43.4248827,7.70570372 C43.5986584,8.29072781 43.6837149,8.89850535 43.6772146,9.50875851 L43.6772146,16.9333837 L41.4269894,16.9333837 L41.4269894,9.51514665 C41.4269894,8.68149335 41.2358773,8.03309628 40.8536531,7.56995554 C40.4714289,7.10681484 39.8858487,6.87524446 39.0969124,6.87524446 C38.53397,6.87246028 37.9795284,7.0125818 37.485502,7.28248888 C36.9621018,7.57148493 36.4903988,7.94550112 36.0896916,8.38923554 L36.0896916,16.9397719 L33.8538398,16.9397719 L33.8538398,3.12638804e-13 L36.0896916,3.12638804e-13 L36.0896916,6.76025777 Z" id="Path"></path>
                            <path d="M48.6807314,5.52095702 L48.6807314,18.3978667 C48.6844354,18.772186 48.6261547,19.144537 48.5082514,19.4998222 C48.4006076,19.8248622 48.2265762,20.1239789 47.9971998,20.3781926 C47.761593,20.633767 47.4718596,20.8334704 47.1491733,20.9627081 C46.7673171,21.1119689 46.3596896,21.1841585 45.9497984,21.1751141 C45.7492226,21.1772562 45.548991,21.1579826 45.3525063,21.1176207 C45.1730448,21.0782096 44.9992162,21.0165111 44.8350663,20.9339615 L44.8925598,20.3829837 C44.9165152,20.3143111 44.9468589,20.2743852 44.9851877,20.2632059 C45.037736,20.251116 45.0923436,20.251116 45.1448914,20.2632059 L45.3908352,20.30952 C45.5163839,20.3307375 45.6436182,20.3403602 45.77093,20.3382667 C46.3905807,20.3382667 46.8494624,20.1695131 47.1475761,19.8320059 C47.4456897,19.4944988 47.5947463,19.0153876 47.5947463,18.3946726 L47.5947463,5.52095702 L48.6807314,5.52095702 Z M49.1598608,1.58426074 C49.1607015,1.71744087 49.1312087,1.84906649 49.0736026,1.96914667 C49.0170393,2.08873428 48.9391016,2.1969808 48.8436296,2.28855407 C48.748304,2.38028219 48.6374539,2.45436251 48.516237,2.50734815 C48.2673748,2.61388453 47.9857448,2.61388453 47.7368826,2.50734815 C47.4966122,2.4032512 47.3040339,2.21295195 47.197084,1.97393778 C47.1424972,1.85301702 47.1147125,1.72171951 47.1156352,1.58905185 C47.1153434,1.45284224 47.1430674,1.31802794 47.197084,1.19298667 C47.2477729,1.07091289 47.3215169,0.959754233 47.4142812,0.865594074 C47.5062971,0.773937542 47.6146238,0.700275286 47.7336886,0.648397037 C47.9821162,0.539762265 48.2646151,0.539762265 48.5130426,0.648397037 C48.6342701,0.700660915 48.7451527,0.774222126 48.8404352,0.865594074 C48.9371128,0.959194848 49.0151512,1.07029081 49.0704086,1.19298667 C49.1242004,1.31416634 49.1519486,1.4452904 49.1518575,1.57787259 L49.1598608,1.58426074 Z" id="Shape"></path>
                            <path d="M57.5522724,5.33729777 C58.3057442,5.32435596 59.0538023,5.46679144 59.7497952,5.75572149 C60.3782982,6.02206449 60.9376495,6.42846816 61.3851612,6.94391702 C61.8458258,7.4867932 62.1913873,8.11760616 62.400877,8.79807702 C62.643922,9.58340874 62.7624743,10.4019595 62.7522249,11.2239763 C62.7629323,12.0449761 62.644366,12.862546 62.400877,13.6466815 C62.1902305,14.3247374 61.8447456,14.953238 61.3851612,15.4944533 C60.938629,16.009405 60.378875,16.4139147 59.7497952,16.6762607 C58.3366749,17.2277186 56.7678703,17.2277186 55.3547496,16.6762607 C54.7242146,16.4132516 54.1625203,16.0089193 53.7129952,15.4944533 C53.2506713,14.9543637 52.9034185,14.3256137 52.6924886,13.6466815 C52.4483208,12.8626998 52.3297386,12.0450215 52.3411407,11.2239763 C52.3300972,10.4019074 52.4486675,9.58323335 52.6924886,8.79807702 C52.9023312,8.11676061 53.2496532,7.48571041 53.7129952,6.94391702 C54.1635486,6.42901138 54.7248297,6.02279242 55.3547496,5.75572149 C56.0507424,5.46679144 56.7988005,5.32435596 57.5522724,5.33729777 Z M57.5522724,16.2290904 C58.1656874,16.2425681 58.7747648,16.1232587 59.3377598,15.8793393 C59.8389801,15.6533592 60.2775272,15.3085518 60.6153896,14.874803 C60.972399,14.4049369 61.2319396,13.8684809 61.3787733,13.2969304 C61.5546092,12.6191385 61.6394649,11.920961 61.6311049,11.2207822 C61.6383997,10.524345 61.5535532,9.83000168 61.3787733,9.15581335 C61.2332701,8.57791889 60.9737247,8.03493689 60.6153896,7.55877628 C60.2784838,7.12130962 59.8399243,6.77265481 59.3377598,6.54306074 C58.1953293,6.06829423 56.9108126,6.06829423 55.7683821,6.54306074 C55.2660478,6.7723777 54.8274263,7.12108157 54.4907524,7.55877628 C54.1322122,8.03567248 53.8706859,8.5782587 53.7209807,9.15581335 C53.5429528,9.82947086 53.4564681,10.5240372 53.4638575,11.2207822 C53.455362,11.9212705 53.5418572,12.619678 53.7209807,13.2969304 C53.8720085,13.8681324 54.1335287,14.4041946 54.4907524,14.874803 C54.8283846,15.3087808 55.2669933,15.6536369 55.7683821,15.8793393 C56.3307646,16.1234202 56.9393585,16.2427417 57.5522724,16.2290904 L57.5522724,16.2290904 Z" id="Shape"></path>
                            <path d="M73.9762012,7.04772446 C73.941743,7.08208767 73.9054928,7.11460609 73.8676026,7.14514372 C73.825162,7.1734109 73.7748088,7.18739793 73.7238696,7.18506963 C73.6066566,7.16487812 73.4984914,7.10912268 73.414044,7.02536591 C73.2474336,6.89865304 73.070624,6.78594356 72.8854249,6.68839112 C72.6204508,6.5472275 72.3416232,6.43376994 72.0533686,6.34981926 C71.6600804,6.23647693 71.2520411,6.18264588 70.8428147,6.19011554 C70.2387897,6.17781067 69.6393276,6.29715812 69.0860738,6.53986665 C68.5829162,6.76855718 68.1408064,7.11272412 67.7956677,7.54440298 C67.4260268,8.01364819 67.154476,8.55240509 66.9971496,9.12866372 C66.8098059,9.80835249 66.7189503,10.5110049 66.72725,11.2159911 C66.7163028,11.9376367 66.8109983,12.6570014 67.0083286,13.3512296 C67.1702469,13.9203565 67.4414699,14.452496 67.8068472,14.917923 C68.1406559,15.3358982 68.5693439,15.668227 69.0573272,15.8873245 C69.5705635,16.1144276 70.1267103,16.2282716 70.6879021,16.2211052 C71.1565074,16.2329376 71.623838,16.1671012 72.0709361,16.0262667 C72.3914792,15.9195201 72.6989828,15.7770183 72.9876352,15.6014548 C73.189743,15.4775361 73.3800558,15.3353362 73.5561807,15.176643 C73.6439022,15.0722143 73.7664167,15.0030162 73.9011407,14.9818045 C73.9916822,14.9815514 74.0769911,15.0242058 74.1311138,15.0967911 L74.4297598,15.4720948 C74.2385125,15.7149246 74.0143703,15.9299291 73.7637952,16.1109096 C73.4830919,16.3175621 73.1791887,16.4906852 72.8582752,16.6267526 C72.5052715,16.7773171 72.1375745,16.890784 71.761111,16.9653245 C71.3553566,17.0477344 70.9422336,17.0884045 70.5281984,17.0866993 C69.8440028,17.0950443 69.1656319,16.9601317 68.5366933,16.6906341 C67.9400344,16.4301114 67.4103368,16.03748 66.9875672,15.5423645 C66.5289451,15.003057 66.1815722,14.378329 65.9654635,13.7041748 C65.7133061,12.9020602 65.5914481,12.0646902 65.6045333,11.2239763 C65.5951736,10.4155807 65.7115501,9.61064403 65.9494933,8.83800298 C66.1573031,8.15621726 66.5006016,7.52339619 66.9588207,6.97745484 C67.4031565,6.45785386 67.9581034,6.04423569 68.5830072,5.76690074 C69.2768415,5.46974362 70.0258693,5.32331303 70.78053,5.33729777 C71.455575,5.32445377 72.1264738,5.44549786 72.7544677,5.69343702 C73.3106251,5.91755732 73.8206383,6.24240641 74.258877,6.65165926 L73.9762012,7.04772446 Z" id="Path"></path>
                            <path d="M78.6810724,0.241152593 L78.6810724,10.4206667 L79.2096914,10.4206667 C79.3125388,10.4215086 79.4148964,10.4064243 79.5131286,10.3759496 C79.6352088,10.3289351 79.7445937,10.2540063 79.8325361,10.1571555 L84.4112412,5.80682665 C84.4820341,5.72094437 84.5681311,5.64892623 84.66517,5.59442074 C84.7717231,5.54172744 84.8897474,5.51647567 85.0085333,5.52095702 L85.9667552,5.52095702 L80.9281035,10.3120681 C80.8012832,10.4623742 80.6501247,10.5903189 80.4809333,10.6905659 C80.5970383,10.7456829 80.7046095,10.8172177 80.8003407,10.9029719 C80.894073,10.9894807 80.9805995,11.0834847 81.0590607,11.1840504 L86.350044,16.9446895 L85.3918221,16.9446895 C85.2920323,16.9463598 85.1928229,16.9290117 85.099564,16.8934578 C84.9989606,16.8476271 84.9136072,16.7739125 84.8536207,16.6810519 L80.0625096,11.5401896 C80.0078418,11.4777698 79.948007,11.420072 79.8836412,11.3677096 C79.8295423,11.3234979 79.7699588,11.2864596 79.70637,11.2575141 C79.6382567,11.2298552 79.5668694,11.211069 79.493964,11.2016178 C79.3971354,11.188318 79.2994312,11.1824451 79.2017063,11.1840504 L78.6842663,11.1840504 L78.6842663,16.9446895 L77.582311,16.9446895 L77.582311,0.241152593 L78.6810724,0.241152593 Z" id="Path"></path>
                            <path d="M88.621031,10.7768059 L88.621031,11.0003911 C88.6082899,11.7648084 88.708932,12.5268923 88.919677,13.2617955 C89.0904744,13.8583286 89.3794013,14.4144586 89.7693007,14.8971615 C90.126942,15.3294944 90.583178,15.6696177 91.0996324,15.8889215 C91.6527762,16.117586 92.2467088,16.231156 92.8451938,16.2227022 C93.3489669,16.2315972 93.8513783,16.1675855 94.3368263,16.0326548 C94.7043667,15.9275497 95.0602202,15.7852083 95.3988561,15.607843 C95.6357208,15.4821842 95.8635797,15.3402392 96.080791,15.1830311 C96.1837404,15.0878735 96.3107675,15.022703 96.4481096,14.9945807 C96.5394676,14.9906832 96.6263857,15.0341422 96.6780826,15.1095674 L96.9767286,15.4752889 C96.7684168,15.725149 96.5221299,15.9407173 96.2468826,16.1141037 C95.930047,16.3206886 95.5915985,16.4920551 95.2375552,16.6251555 C94.8501202,16.7713552 94.4510433,16.8846139 94.0445686,16.9637274 C93.6237504,17.0468404 93.1958852,17.0890921 92.7669389,17.0898933 C92.0355555,17.0992378 91.309823,16.9607185 90.6332975,16.6826489 C89.9989389,16.4177808 89.4335499,16.0113563 88.980364,15.4944533 C88.4992896,14.9348017 88.1378621,14.2826013 87.9183347,13.5780089 C87.6567256,12.7442446 87.5295005,11.8741529 87.5414338,11.0003911 C87.5334896,10.2303145 87.6521884,9.46416922 87.8927821,8.73259851 C88.1063744,8.07445936 88.4495599,7.46573934 88.9021096,6.94232 C89.3487162,6.43668511 89.901016,6.03540898 90.5199077,5.76690074 C91.2071261,5.47425098 91.9482428,5.32951021 92.6950724,5.34208888 C93.3076879,5.3361194 93.9156552,5.44892687 94.485351,5.6742726 C95.0283928,5.89067477 95.5185752,6.22127546 95.922684,6.64367409 C96.3439189,7.09636519 96.6697895,7.62916383 96.8809063,8.2103674 C97.1248925,8.89530343 97.2433722,9.61862242 97.2306575,10.3456059 C97.2413838,10.4648022 97.217542,10.5845649 97.1619849,10.6905659 C97.104403,10.7560931 97.0188424,10.7899609 96.9320114,10.781597 L88.621031,10.7768059 Z M96.2420914,10.0773037 C96.2525467,9.51807806 96.1672039,8.96118872 95.9897598,8.43075851 C95.8346673,7.97347135 95.5867312,7.55317618 95.261511,7.19624888 C94.9487959,6.86079957 94.5675113,6.59662406 94.1435849,6.42168591 C93.6898912,6.23733713 93.2039143,6.1455717 92.714237,6.15178665 C92.1741515,6.14363838 91.6373251,6.23681106 91.1315733,6.42647702 C90.6760615,6.60482733 90.2630947,6.87687414 89.9194221,7.22499554 C89.570466,7.58321907 89.2924784,8.00426458 89.1001421,8.46589335 C88.8837233,8.98197362 88.7443555,9.52706836 88.6865096,10.0836919 L96.2420914,10.0773037 Z" id="Shape"></path>
                            <path d="M109.647621,5.52095702 L103.082201,20.612957 C103.041351,20.7117774 102.981068,20.8013865 102.90493,20.8764681 C102.816077,20.9514078 102.701456,20.9886594 102.585523,20.9802755 L101.804571,20.9802755 L103.813644,16.5085719 L98.984204,5.52095702 L99.8913212,5.52095702 C99.990726,5.51606229 100.088639,5.54662473 100.167609,5.60719702 C100.229829,5.65620752 100.277349,5.72140866 100.304954,5.7956474 L104.149022,14.6735763 C104.195336,14.788563 104.235262,14.9051467 104.270397,15.0233274 C104.305531,15.1415081 104.337472,15.262883 104.367816,15.3842578 C104.406145,15.262883 104.446071,15.1415081 104.487594,15.0233274 C104.529117,14.9051467 104.573834,14.788563 104.620148,14.6735763 L108.419499,5.78925926 C108.454792,5.70971619 108.509752,5.64046626 108.579203,5.5880326 C108.645946,5.5394115 108.726606,5.51364497 108.809176,5.51454488 L109.647621,5.52095702 Z" id="Path"></path>
                        </g>
                    </g>
                </g>
            </g>
        </g>
    </g>
</svg>