<?xml version="1.0" encoding="UTF-8"?>
<svg width="24px" height="24px" viewBox="0 0 24 24" version="1.1" xmlns="http://www.w3.org/2000/svg" xmlns:xlink="http://www.w3.org/1999/xlink">
    <!-- Generator: Sketch 58 (84663) - https://sketch.com -->
    <title>profile</title>
    <desc>Created with Sketch.</desc>
    <g id="profile" stroke="none" stroke-width="1" fill="none" fill-rule="evenodd">
        <g id="Group-11" transform="translate(2.000000, 2.000000)" fill="#4A4A4A">
            <g id="Group-6" opacity="0">
                <rect id="Rectangle" opacity="0.502534412" x="0" y="0" width="20" height="20"></rect>
            </g>
            <g id="Group-7" transform="translate(1.666667, 1.666667)">
                <path d="M6.68785613,12.0321138 L7.80099715,14.8707317 L8.90267094,12.0650407 L8.31415598,10.0772358 C8.36698718,10.0288618 8.40179843,9.96097561 8.40179843,9.88455285 L8.40179843,9.42804878 C8.40179843,9.28292683 8.28180199,9.16463415 8.13600427,9.16463415 L7.44059829,9.16463415 C7.29439103,9.16463415 7.17480413,9.28292683 7.17480413,9.42804878 L7.17480413,9.88455285 C7.17480413,9.97317073 7.2227208,10.0479675 7.29070513,10.095935 L6.68785613,12.0321138" id="Fill-100"></path>
                <path d="M10.6776353,9.12886179 L7.80058761,16.4536585 L4.92681624,9.12723577 C2.01577635,10.2601626 0.58482906,13.0613821 0,16.498374 L15.6011752,16.498374 C15.014708,13.0630081 13.587037,10.2626016 10.6776353,9.12886179" id="Fill-101"></path>
                <path d="M7.8329416,0 C5.48748219,0.00081300813 3.58555912,1.88780488 3.58555912,4.21504065 C3.58555912,6.54349593 5.48748219,8.4300813 7.8329416,8.4300813 C10.1779915,8.4300813 12.0786859,6.54349593 12.079505,4.21504065 C12.0786859,1.88780488 10.1779915,0.00081300813 7.8329416,0 Z M7.8329416,7.70853659 C5.95477208,7.70528455 4.42799145,6.24715447 4.32355769,4.41056911 C5.12790242,3.71056911 5.69471154,2.78943089 5.88924501,1.75284553 C6.87092236,2.84308943 8.37108262,3.54146341 10.0526709,3.54146341 C10.4667201,3.54146341 10.8680734,3.49674797 11.254683,3.41544715 C11.3157051,3.67276423 11.3509259,3.93943089 11.351745,4.21504065 C11.3484687,6.14349593 9.77581909,7.70528455 7.8329416,7.70853659 L7.8329416,7.70853659 Z" id="Fill-102"></path>
            </g>
        </g>
    </g>
</svg>