<?xml version="1.0" encoding="UTF-8"?>
<svg width="35px" height="35px" viewBox="0 0 35 35" version="1.1" xmlns="http://www.w3.org/2000/svg" xmlns:xlink="http://www.w3.org/1999/xlink">
    <!-- Generator: Sketch 58 (84663) - https://sketch.com -->
    <title>Artboard</title>
    <desc>Created with Sketch.</desc>
    <defs>
        <linearGradient x1="24.978949%" y1="10.5957487%" x2="50%" y2="54.5544454%" id="linearGradient-1">
            <stop stop-color="#4F5BA8" offset="0%"></stop>
            <stop stop-color="#6487FF" offset="100%"></stop>
        </linearGradient>
    </defs>
    <g id="Artboard" stroke="none" stroke-width="1" fill="none" fill-rule="evenodd">
        <g id="organisation-type" transform="translate(1.000000, 1.000000)">
            <g id="Group-2" fill="url(#linearGradient-1)">
                <rect id="Rectangle" x="0" y="0" width="33" height="33" rx="15"></rect>
            </g>
            <g id="portfolio" transform="translate(8.000000, 8.000000)" fill="#FFFFFF" fill-rule="nonzero">
                <path d="M16.9113159,2.0001302 C16.9102783,2.0001302 16.9092407,2 16.9082031,2 L12.3925781,2 L12.3925781,1.5 C12.3925781,0.672916667 11.72229,0 10.8984375,0 L6.9140625,0 C6.09020996,0 5.41992187,0.672916667 5.41992187,1.5 L5.41992187,2 L0.904296875,2 C0.626998918,2 0.40625,2.228125 0.40625,2.5 L0.40625,13.5 C0.40625,14.3270833 1.07653809,15 1.90039062,15 L15.9121094,15 C16.7359619,15 17.40625,14.3270833 17.40625,13.5 L17.40625,2.51054687 C17.40625,2.50989583 17.40625,2.5092448 17.40625,2.50859373 C17.3871841,2.18020833 17.1860199,2.00195313 16.9113159,2.0001302 Z M6.41601562,1.5 C6.41601562,1.22434897 6.63948823,1 6.9140625,1 L10.8984375,1 C11.1730118,1 11.3964844,1.22434897 11.3964844,1.5 L11.3964844,2 L6.41601562,2 L6.41601562,1.5 Z M16.2171631,3 L14.6704941,7.65807293 C14.6026611,7.8626302 14.4127808,8 14.1981277,8 L11.3964844,8 L11.3964844,7.5 C11.3964844,7.22382813 11.1735306,7 10.8984375,7 L6.9140625,7 C6.63896943,7 6.41601562,7.22382813 6.41601562,7.5 L6.41601562,8 L3.61437226,8 C3.39971924,8 3.20983887,7.8626302 3.14200591,7.65807293 L1.59533691,3 L16.2171631,3 Z M10.4003906,8 L10.4003906,9 L7.41210937,9 L7.41210937,8 L10.4003906,8 Z M16.4101562,13.5 C16.4101562,13.775651 16.1866836,14 15.9121094,14 L1.90039062,14 C1.62581635,14 1.40234375,13.775651 1.40234375,13.5 L1.40234375,5.5811198 L2.19701386,7.97434897 C2.40064239,8.58789063 2.9702835,9 3.61437226,9 L6.41601562,9 L6.41601562,9.5 C6.41601562,9.77617187 6.63896943,10 6.9140625,10 L10.8984375,10 C11.1735306,10 11.3964844,9.77617187 11.3964844,9.5 L11.3964844,9 L14.1981277,9 C14.8422165,9 15.4118576,8.58789063 15.6154861,7.97434897 L16.4101562,5.5811198 L16.4101562,13.5 Z" id="Shape"></path>
            </g>
        </g>
    </g>
</svg>