<?xml version="1.0" encoding="UTF-8"?>
<svg width="20px" height="20px" viewBox="0 0 20 20" version="1.1" xmlns="http://www.w3.org/2000/svg" xmlns:xlink="http://www.w3.org/1999/xlink">
    <!-- Generator: Sketch 58 (84663) - https://sketch.com -->
    <title>cp-home-filter-price</title>
    <desc>Created with Sketch.</desc>
    <g id="cp-home-filter-price" stroke="none" stroke-width="1" fill="none" fill-rule="evenodd">
        <g id="pricing">
            <circle id="Oval" fill="#472DC2" cx="10" cy="10" r="10"></circle>
            <path d="M11.2517929,9.05916997 L12.0448616,9.06762032 C12.3471503,9.06921101 12.5946342,8.82431215 12.5962286,8.52061971 C12.597823,8.21692727 12.3529241,7.9694434 12.0492317,7.96784901 L11.2636772,7.95942741 C11.1997125,7.66515171 11.0826071,7.38609077 10.9192047,7.13560218 L12.0656262,7.14786384 C12.3678902,7.14947971 12.615393,6.90460535 12.6170364,6.60091609 C12.6186324,6.29721271 12.3737556,6.04971234 12.0700656,6.04809264 L7.59710471,6 C7.40062654,5.9979808 7.21799214,6.10083201 7.11794564,6.26989426 C7.01789155,6.43896934 7.01563825,6.64857939 7.11203452,6.81976631 C7.20843079,6.99095324 7.38883176,7.09770968 7.58528212,7.09982152 L8.8656251,7.11357043 C9.41869979,7.12027999 9.90173176,7.45637761 10.1109507,7.94706725 L7.5705464,7.91986553 C7.26825766,7.91827485 7.0207738,8.16317371 7.01917941,8.46686615 C7.01758503,8.77055858 7.26248388,9.01804245 7.56617632,9.01963685 L10.099176,9.0468113 C9.89522964,9.49815764 9.45795424,9.81157502 8.95264676,9.84965533 L8.83327644,9.85355922 L7.55580759,9.83982577 C7.33057832,9.8374094 7.12665116,9.97259093 7.0411636,10.180977 C6.95567604,10.389363 7.00591565,10.628813 7.16795094,10.7852657 L10.3356133,13.8435489 C10.4744192,13.9804885 10.6790595,14.0330472 10.8694371,13.9791782 C11.0598146,13.9253093 11.2065759,13.7733184 11.253749,13.5811722 C11.3009221,13.3890259 11.2412335,13.1863504 11.0974473,13.0504422 L8.92413377,10.9521078 C10.0437921,10.917685 10.9936971,10.135225 11.2517929,9.05916997 Z" id="Path" fill="#FFFFFF"></path>
        </g>
    </g>
</svg>