<?xml version="1.0" encoding="UTF-8"?>
<svg width="35px" height="35px" viewBox="0 0 35 35" version="1.1" xmlns="http://www.w3.org/2000/svg" xmlns:xlink="http://www.w3.org/1999/xlink">
    <!-- Generator: Sketch 58 (84663) - https://sketch.com -->
    <title>no. of employees</title>
    <desc>Created with Sketch.</desc>
    <defs>
        <linearGradient x1="26.4833724%" y1="16.0584233%" x2="50%" y2="56.2148907%" id="linearGradient-1">
            <stop stop-color="#F967FF" offset="0%"></stop>
            <stop stop-color="#FF51B4" offset="100%"></stop>
        </linearGradient>
    </defs>
    <g id="no.-of-employees" stroke="none" stroke-width="1" fill="none" fill-rule="evenodd">
        <g id="Group-22" transform="translate(1.000000, 1.000000)">
            <g id="Group-3" fill="url(#linearGradient-1)">
                <rect id="Rectangle" x="0" y="0" width="33" height="33" rx="15"></rect>
            </g>
            <g id="profile" transform="translate(6.000000, 6.000000)" fill="#FFFFFF" fill-rule="nonzero">
                <path d="M10.9090909,10 C13.669845,10 15.9090909,7.75728555 15.9090909,4.99232925 C15.9090909,2.22737295 13.6698118,0 10.9090909,0 C8.14836997,0 5.90909091,2.24271445 5.90909091,4.99232925 C5.90909091,7.74194405 8.14833681,10 10.9090909,10 Z M10.9090909,1.30568764 C12.9336196,1.30568764 14.5900853,2.96466142 14.5900853,4.99232925 C14.5900853,7.01999708 12.9336196,8.67893765 10.9090909,8.67893765 C8.88456222,8.67893765 7.2280965,7.01996387 7.2280965,4.99229604 C7.2280965,2.96462822 8.88452906,1.30568764 10.9090909,1.30568764 Z" id="Shape"></path>
                <path d="M1.57985569,18 L19.2383261,18 C19.612708,18 19.9090909,17.7057569 19.9090909,17.3340778 C19.9090909,13.8495617 17.0544204,11 13.5289514,11 L7.28923041,11 C3.77937471,11 0.909090909,13.8340611 0.909090909,17.3340778 C0.909090909,17.7057569 1.20547378,18 1.57985569,18 Z M7.28923041,12.3318443 L13.5289514,12.3318443 C16.087239,12.3318443 18.1931457,14.2212407 18.5207552,16.6681222 L2.29742664,16.6681222 C2.62500238,14.2367413 4.73094278,12.3318443 7.28923041,12.3318443 Z" id="Shape"></path>
            </g>
        </g>
    </g>
</svg>