<?xml version="1.0" encoding="UTF-8"?>
<svg width="24px" height="24px" viewBox="0 0 24 24" version="1.1" xmlns="http://www.w3.org/2000/svg" xmlns:xlink="http://www.w3.org/1999/xlink">
    <!-- Generator: Sketch 58 (84663) - https://sketch.com -->
    <title>home</title>
    <desc>Created with Sketch.</desc>
    <g id="home" stroke="none" stroke-width="1" fill="none" fill-rule="evenodd">
        <g id="Home" transform="translate(2.000000, 2.000000)" fill="#FFFFFF">
            <path d="M20.7045391,16.6083261 L0.863530435,16.6083261 C0.389269565,16.6083261 0,16.914013 0,17.2882565 L0,17.3211261 C0,17.6953696 0.389269565,18.0001174 0.863530435,18.0001174 L20.7045391,18.0001174 C21.1811478,18.0001174 21.5676,17.6953696 21.5676,17.3211261 L21.5676,17.2882565 C21.5676,16.914013 21.1811478,16.6083261 20.7045391,16.6083261" id="Fill-49"></path>
            <path d="M11.4742957,7.08757826 L10.0961217,7.08757826 C9.65050435,7.08757826 9.288,7.45008261 9.288,7.8971087 L9.288,13.8544826 C9.288,14.3005696 9.65050435,14.6630739 10.0961217,14.6630739 L11.4742957,14.6630739 C11.9217913,14.6630739 12.2838261,14.3005696 12.2838261,13.8544826 L12.2838261,7.8971087 C12.2838261,7.45008261 11.9217913,7.08757826 11.4742957,7.08757826 Z M5.41033043,7.08757826 L4.03074783,7.08757826 C3.58794783,7.08757826 3.22262609,7.45196087 3.22262609,7.8971087 L3.22262609,13.8544826 C3.22262609,14.3005696 3.58794783,14.664013 4.03074783,14.664013 L5.41033043,14.664013 C5.85641739,14.664013 6.2193913,14.3005696 6.2193913,13.8544826 L6.2193913,7.8971087 C6.2193913,7.45196087 5.85641739,7.08757826 5.41033043,7.08757826 Z M17.5373217,7.08757826 L16.1605565,7.08757826 C15.7149391,7.08757826 15.3529043,7.45008261 15.3529043,7.8971087 L15.3529043,13.8544826 C15.3529043,14.3005696 15.7149391,14.6630739 16.1605565,14.6630739 L17.5373217,14.6630739 C17.9848174,14.6630739 18.3468522,14.3005696 18.3468522,13.8544826 L18.3468522,7.8971087 C18.3468522,7.45008261 17.9848174,7.08757826 17.5373217,7.08757826 L17.5373217,7.08757826 Z" id="Fill-50"></path>
            <path d="M21.1041391,3.98156087 L10.9699826,0.0264130435 C10.850713,-0.00880434783 10.7229913,-0.00880434783 10.6056,0.0264130435 L0.464869565,3.98156087 C0.180782609,4.06232609 0.00234782609,4.32246522 0.0483652174,4.58964783 C0.0943826087,4.85964783 0.350295652,5.05827391 0.646121739,5.05827391 L20.9205391,5.05827391 C21.222,5.05827391 21.4783826,4.85964783 21.5220522,4.58964783 C21.5666609,4.32246522 21.3905739,4.06232609 21.1041391,3.98156087" id="Fill-51"></path>
        </g>
    </g>
</svg>