<?xml version="1.0" encoding="UTF-8"?>
<svg width="24px" height="24px" viewBox="0 0 24 24" version="1.1" xmlns="http://www.w3.org/2000/svg" xmlns:xlink="http://www.w3.org/1999/xlink">
    <!-- Generator: Sketch 58 (84663) - https://sketch.com -->
    <title>learn</title>
    <desc>Created with Sketch.</desc>
    <g id="learn" stroke="none" stroke-width="1" fill="none" fill-rule="evenodd">
        <g id="Group-10" transform="translate(2.000000, 2.000000)" fill="#4A4A4A">
            <g id="Group-6" opacity="0">
                <rect id="Rectangle" opacity="0.502534412" x="0" y="0" width="20" height="20"></rect>
            </g>
            <g id="study" transform="translate(1.666667, 1.666667)" fill-rule="nonzero">
                <path d="M8.41232227,0 C6.77115164,0 5.4361318,1.36053012 5.4361318,2.99263352 C5.4361318,4.62473691 6.77115164,5.95238095 8.41232227,5.95238095 C10.0534929,5.95238095 11.3885128,4.62473691 11.3885128,2.99263352 C11.3885128,1.36053012 10.0534929,0 8.41232227,0 Z" id="Path"></path>
                <path d="M9.40229582,5.95238095 L8.41232227,5.95238095 L7.42234873,5.95238095 C6.72415338,5.95238095 6.04948641,6.13966778 5.4361318,6.45828482 C6.47788096,6.74998516 7.45874675,7.17010488 8.41232227,7.73809524 C9.36593079,7.17010488 10.3467636,6.74998516 11.3885128,6.45828482 C10.7751581,6.13966778 10.1004912,5.95238095 9.40229582,5.95238095 Z" id="Path"></path>
                <path d="M15.8527985,8.92857143 C15.3596735,8.92857143 14.9599413,9.3949256 14.9599413,9.9702381 L14.9599413,12.0535714 C14.9599413,12.6288145 15.3596735,13.0952381 15.8527985,13.0952381 C16.3459235,13.0952381 16.7456556,12.6288145 16.7456556,12.0535714 L16.7456556,9.9702381 C16.7456556,9.3949256 16.3459235,8.92857143 15.8527985,8.92857143 Z" id="Path"></path>
                <path d="M0.971846084,8.92857143 C0.478721084,8.92857143 0.0789889415,9.3949256 0.0789889415,9.9702381 L0.0789889415,12.0535714 C0.0789889415,12.6288145 0.478721084,13.0952381 0.971846084,13.0952381 C1.46497108,13.0952381 1.86470323,12.6288145 1.86470323,12.0535714 L1.86470323,9.9702381 C1.86470323,9.3949256 1.46497108,8.92857143 0.971846084,8.92857143 Z" id="Path"></path>
                <path d="M1.18201309,7.14285714 C0.901342812,7.14285714 0.674227037,7.35513368 0.674227037,7.61746559 L0.674227037,8.09207404 C1.79443692,8.09207404 2.70537125,8.94348995 2.70537125,9.99050783 L2.70537125,11.8889416 C2.70537125,12.9359595 1.79443692,13.7873754 0.674227037,13.7873754 L0.674227037,14.2619839 C0.674227037,14.5243158 0.901342812,14.7365923 1.18201309,14.7365923 C3.78529677,14.7365923 5.86684721,15.505015 7.81708418,16.6666667 L7.81708418,8.68039867 C5.85804559,7.63056478 3.75151207,7.14285714 1.18201309,7.14285714 Z" id="Path"></path>
                <path d="M16.1504175,8.09207404 L16.1504175,7.61746559 C16.1504175,7.35513368 15.9233017,7.14285714 15.6426315,7.14285714 C13.0731325,7.14285714 10.966599,7.63056478 9.00756037,8.68039867 L9.00756037,16.6666667 C10.9577973,15.505015 13.0393478,14.7365923 15.6426315,14.7365923 C15.9233017,14.7365923 16.1504175,14.5243158 16.1504175,14.2619839 L16.1504175,13.7873754 C15.0302076,13.7873754 14.1192733,12.9359595 14.1192733,11.8889416 L14.1192733,9.99050783 C14.1192733,8.94348995 15.0302076,8.09207404 16.1504175,8.09207404 Z" id="Path"></path>
            </g>
        </g>
    </g>
</svg>