<?xml version="1.0" encoding="UTF-8"?>
<svg width="35px" height="35px" viewBox="0 0 35 35" version="1.1" xmlns="http://www.w3.org/2000/svg" xmlns:xlink="http://www.w3.org/1999/xlink">
    <!-- Generator: Sketch 57.1 (83088) - https://sketch.com -->
    <title>my dashboard</title>
    <desc>Created with Sketch.</desc>
    <g id="my-dashboard" stroke="none" stroke-width="1" fill="none" fill-rule="evenodd">
        <g id="Group-3" transform="translate(2.000000, 2.000000)">
            <g id="Group-Copy-7" fill="#F3AF20">
                <rect id="Rectangle" x="0" y="0" width="32" height="32" rx="16"></rect>
            </g>
            <g id="Group-6" opacity="0.936128162" transform="translate(5.000000, 6.000000)">
                <rect id="Rectangle" fill="#D8D8D8" opacity="0" x="0" y="0" width="20" height="20"></rect>
                <path d="M17.6388889,16.9444444 L3.05555556,16.9444444 L3.05555556,2.36111111 C3.05555556,1.97708333 2.74444444,1.66666667 2.36111111,1.66666667 C1.97777778,1.66666667 1.66666667,1.97708333 1.66666667,2.36111111 L1.66666667,16.9444444 C1.66666667,17.7104167 2.28958333,18.3333333 3.05555556,18.3333333 L17.6388889,18.3333333 C18.0222222,18.3333333 18.3333333,18.0229167 18.3333333,17.6388889 C18.3333333,17.2548611 18.0222222,16.9444444 17.6388889,16.9444444 Z" id="Path" fill="#FFFFFF" fill-rule="nonzero"></path>
                <path d="M5.75163399,7.54901961 C5.12091503,7.54901961 4.60784314,8.14760349 4.60784314,8.88344227 L4.60784314,13.077342 C4.60784314,13.8131808 5.12091503,14.4117647 5.75163399,14.4117647 L7.38562092,14.4117647 C8.01633987,14.4117647 8.52941176,13.8131808 8.52941176,13.077342 L8.52941176,8.88344227 C8.52941176,8.14760349 8.01633987,7.54901961 7.38562092,7.54901961 L5.75163399,7.54901961 Z" id="Path" fill="#FFFFFF" fill-rule="nonzero"></path>
                <path d="M10.6535948,6.56862745 C10.0228758,6.56862745 9.50980392,7.08169935 9.50980392,7.7124183 L9.50980392,13.2679739 C9.50980392,13.8986928 10.0228758,14.4117647 10.6535948,14.4117647 L12.2875817,14.4117647 C12.9183007,14.4117647 13.4313725,13.8986928 13.4313725,13.2679739 L13.4313725,7.7124183 C13.4313725,7.08169935 12.9183007,6.56862745 12.2875817,6.56862745 L10.6535948,6.56862745 Z" id="Path" fill="#FFFFFF" fill-rule="nonzero"></path>
                <path d="M17.1895425,3.62745098 L15.5555556,3.62745098 C14.9248366,3.62745098 14.4117647,4.15655637 14.4117647,4.80698529 L14.4117647,13.2322304 C14.4117647,13.8826593 14.9248366,14.4117647 15.5555556,14.4117647 L17.1895425,14.4117647 C17.8202614,14.4117647 18.3333333,13.8826593 18.3333333,13.2322304 L18.3333333,4.80698529 C18.3333333,4.15655637 17.8202614,3.62745098 17.1895425,3.62745098 Z" id="Path" fill="#FFFFFF" fill-rule="nonzero"></path>
            </g>
        </g>
    </g>
</svg>