<?xml version="1.0" encoding="UTF-8"?>
<svg width="10px" height="12px" viewBox="0 0 10 12" version="1.1" xmlns="http://www.w3.org/2000/svg" xmlns:xlink="http://www.w3.org/1999/xlink">
    <!-- Generator: Sketch 58 (84663) - https://sketch.com -->
    <title>`</title>
    <desc>Created with Sketch.</desc>
    <g id="Combined" stroke="none" stroke-width="1" fill="none" fill-rule="evenodd">
        <path d="M1.6015625,0.3359375 L9.1171875,0.3359375 L9.1171875,0.3515625 L8.66417015,1.03895537 C8.49960153,1.28251696 8.40060781,1.41796861 8.3671875,1.4453125 L6.359375,1.4453125 C6.63541805,1.76823078 6.82291617,2.16145602 6.921875,2.625 L9.0625,2.625 C9.0885418,2.63020836 9.1015625,2.64062492 9.1015625,2.65625 L8.38600117,3.71237264 C8.37494682,3.72704089 8.3686756,3.734375 8.3671875,3.734375 L6.9765625,3.734375 C6.94531234,4.10416852 6.76823078,4.54947656 6.4453125,5.0703125 C6.07161271,5.53060126 5.7118744,5.84932452 5.36608934,6.02648914 L5.21875,6.09375 C4.48957969,6.44271008 3.79167,6.6171875 3.125,6.6171875 L3.125,6.6328125 L3.13821664,6.65648387 C3.2924108,6.8833816 4.79580499,8.6645385 7.6484375,12 L5.65625,12 L1.26287424,6.86121243 C1.25429141,6.85041541 1.25,6.8445946 1.25,6.84375 L1.25,5.8046875 L1.265625,5.765625 C1.52604297,5.80208352 1.83072742,5.8203125 2.1796875,5.8203125 C3.82552906,5.8203125 4.84895633,5.28646367 5.25,4.21875 C5.31250031,4.06249922 5.34375,3.9010425 5.34375,3.734375 L0.875,3.734375 C0.854166562,3.734375 0.84375,3.72395844 0.84375,3.703125 L1.49772858,2.76251506 C1.56323105,2.67083819 1.59784224,2.625 1.6015625,2.625 L5.1484375,2.625 L5.1484375,2.609375 C4.94531148,2.19791461 4.55208625,1.87760531 3.96875,1.6484375 C3.55208125,1.51302016 3.177085,1.4453125 2.84375,1.4453125 L0.859375,1.4453125 L0.859375,1.40625 L1.43181477,0.563931834 C1.53776859,0.411935261 1.59435093,0.3359375 1.6015625,0.3359375 Z" id="`" fill="#15AB7F" fill-rule="nonzero"></path>
    </g>
</svg>