<?xml version="1.0" encoding="UTF-8"?>
<svg width="266px" height="68px" viewBox="0 0 266 68" version="1.1" xmlns="http://www.w3.org/2000/svg" xmlns:xlink="http://www.w3.org/1999/xlink">
    <!-- Generator: Sketch 59.1 (86144) - https://sketch.com -->
    <title>white_cp copy 7</title>
    <desc>Created with Sketch.</desc>
    <g id="white_cp-copy-7" stroke="none" stroke-width="1" fill="none" fill-rule="evenodd">
        <g id="tj-ems" transform="translate(2.000000, 2.000000)" fill-rule="nonzero">
            <g id="tj-logo-04" transform="translate(2.000000, 8.000000)">
                <path d="M29.924507,27.7426471 L28.4579577,26.3014706 L26.8706338,24.7269853 C26.3670489,24.2330641 25.6134062,24.1409188 25.0141549,24.5 C24.9177817,24.5579147 24.8295302,24.6294483 24.7519014,24.7125735 C24.68453,24.7726467 24.6263466,24.843117 24.5793662,24.9215441 C24.1906979,25.4821033 24.238502,26.2519749 24.6932394,26.7554412 L24.7519014,26.8166912 L27.8057746,29.8467647 C28.4023357,30.4279662 29.327946,30.4279662 29.924507,29.8467647 C30.2032554,29.574279 30.3614392,29.1933991 30.3614392,28.7947059 C30.3614392,28.3960127 30.2032554,28.0151328 29.924507,27.7426471 Z M29.924507,27.7426471 L28.4579577,26.3014706 L26.8706338,24.7269853 C26.3670489,24.2330641 25.6134062,24.1409188 25.0141549,24.5 C24.9177817,24.5579147 24.8295302,24.6294483 24.7519014,24.7125735 C24.68453,24.7726467 24.6263466,24.843117 24.5793662,24.9215441 C24.1906979,25.4821033 24.238502,26.2519749 24.6932394,26.7554412 L24.7519014,26.8166912 L27.8057746,29.8467647 C28.4023357,30.4279662 29.327946,30.4279662 29.924507,29.8467647 C30.2032554,29.574279 30.3614392,29.1933991 30.3614392,28.7947059 C30.3614392,28.3960127 30.2032554,28.0151328 29.924507,27.7426471 Z M29.924507,27.7426471 L28.4579577,26.3014706 L26.8706338,24.7269853 C26.3670489,24.2330641 25.6134062,24.1409188 25.0141549,24.5 C24.9177817,24.5579147 24.8295302,24.6294483 24.7519014,24.7125735 C24.68453,24.7726467 24.6263466,24.843117 24.5793662,24.9215441 C24.1906979,25.4821033 24.238502,26.2519749 24.6932394,26.7554412 L24.7519014,26.8166912 L27.8057746,29.8467647 C28.4023357,30.4279662 29.327946,30.4279662 29.924507,29.8467647 C30.2032554,29.574279 30.3614392,29.1933991 30.3614392,28.7947059 C30.3614392,28.3960127 30.2032554,28.0151328 29.924507,27.7426471 Z M29.924507,27.7426471 L28.4579577,26.3014706 L26.8706338,24.7269853 C26.3670489,24.2330641 25.6134062,24.1409188 25.0141549,24.5 C24.9177817,24.5579147 24.8295302,24.6294483 24.7519014,24.7125735 C24.68453,24.7726467 24.6263466,24.843117 24.5793662,24.9215441 C24.1906979,25.4821033 24.238502,26.2519749 24.6932394,26.7554412 L24.7519014,26.8166912 L27.8057746,29.8467647 C28.4023357,30.4279662 29.327946,30.4279662 29.924507,29.8467647 C30.2032554,29.574279 30.3614392,29.1933991 30.3614392,28.7947059 C30.3614392,28.3960127 30.2032554,28.0151328 29.924507,27.7426471 Z M29.924507,27.7426471 L28.4579577,26.3014706 L26.8706338,24.7269853 C26.3670489,24.2330641 25.6134062,24.1409188 25.0141549,24.5 C24.9177817,24.5579147 24.8295302,24.6294483 24.7519014,24.7125735 C24.68453,24.7726467 24.6263466,24.843117 24.5793662,24.9215441 C24.1906979,25.4821033 24.238502,26.2519749 24.6932394,26.7554412 L24.7519014,26.8166912 L27.8057746,29.8467647 C28.4023357,30.4279662 29.327946,30.4279662 29.924507,29.8467647 C30.2032554,29.574279 30.3614392,29.1933991 30.3614392,28.7947059 C30.3614392,28.3960127 30.2032554,28.0151328 29.924507,27.7426471 Z M43.5375352,34.1054412 C43.1359723,34.8909905 42.6852534,35.6480483 42.1883099,36.3716912 C42.1921509,36.3808805 42.1921509,36.3913254 42.1883099,36.4005147 L42.1883099,36.4005147 C41.8398942,36.9777932 41.2654611,37.3653405 40.6182394,37.4597794 C40.0996531,37.5164184 39.5834679,37.331934 39.2069014,36.9553676 L35.1730282,32.9308824 C36.7827528,31.212011 37.6897115,28.9072396 37.7023944,26.5032353 C37.7014353,23.9463978 36.681257,21.5053462 34.8866197,19.7657353 L33.2889437,18.1768382 L33.2889437,18.1768382 L29.1480986,14.0838971 C27.3026386,12.2831706 24.8691877,11.2846275 22.3433099,11.2913973 C19.8196866,11.2743342 17.387025,12.2745823 15.5523239,14.0838971 L14.0340141,15.6007353 C13.3394411,16.2913973 12.7495253,17.0883578 12.284507,17.9642647 L12.284507,17.9642647 C11.579818,19.3045096 11.2117974,20.8093087 11.2147706,22.3382353 C11.2203871,24.8947986 12.2412257,27.3344404 14.0340141,29.0757353 L15.5005634,30.5385294 L19.7656338,34.7719853 C21.3042872,36.2816524 23.2709241,37.2286947 25.3695775,37.4705882 C25.7670992,37.5180305 26.1668621,37.5420881 26.5669718,37.5426471 C28.9452362,37.5549843 31.2468728,36.6651549 33.0439437,35.0386029 L37.0674648,39.0594853 C37.9740369,39.951115 39.1726621,40.4473351 40.4180986,40.4466184 C40.5910924,40.4466184 40.763924,40.4355495 40.9357042,40.4141912 C42.4500325,40.2359058 43.8121648,39.3699162 44.6590141,38.0470588 L44.6590141,38.0470588 L44.6590141,38.0470588 C44.6590141,38.0470588 44.6590141,38.0470588 44.6590141,38.0182353 L44.6590141,38.0182353 C45.2017033,37.2072875 45.7005337,36.3652866 46.153169,35.4961765 L43.5375352,34.1054412 Z M34.113662,29.2342647 C33.7761381,29.9576591 33.3167873,30.6117922 32.7575352,31.1654412 L31.2392254,32.6750735 C29.6082838,34.2379499 27.3613061,34.8950745 25.1901408,34.4441176 C23.9525296,34.1916934 22.8087379,33.578327 21.8912676,32.6750735 L17.9919718,28.8235294 L16.1527465,26.9968382 C14.912846,25.7939556 14.2099338,24.1054103 14.2134143,22.3382353 C14.2099219,21.2899654 14.4629199,20.2581305 14.9484507,19.3405882 C14.9484507,19.3405882 14.9484507,19.3405882 14.9484507,19.3405882 C15.2651054,18.7347186 15.6702472,18.1840688 16.1492958,17.7084559 L17.6710563,16.2132353 C19.3499369,14.5812326 21.6978667,13.9311892 23.9306338,14.4802206 C25.097832,14.7513875 26.1717811,15.3506756 27.0362676,16.2132353 L30.7940845,19.9386765 L32.7747887,21.9022794 C34.7183301,23.7785879 35.2677509,26.7563649 34.1309155,29.2522794 L34.113662,29.2342647 Z M28.4579577,26.3014706 L26.8706338,24.7269853 C26.3670489,24.2330641 25.6134062,24.1409188 25.0141549,24.5 C24.9177817,24.5579147 24.8295302,24.6294483 24.7519014,24.7125735 C24.68453,24.7726467 24.6263466,24.843117 24.5793662,24.9215441 C24.1906979,25.4821033 24.238502,26.2519749 24.6932394,26.7554412 L24.7519014,26.8166912 L27.8057746,29.8467647 C28.4023357,30.4279662 29.327946,30.4279662 29.924507,29.8467647 C30.2021391,29.5743745 30.3595996,29.1942851 30.3595996,28.7965074 C30.3595996,28.3987296 30.2021391,28.0186402 29.924507,27.74625 L28.4579577,26.3014706 Z M29.924507,27.7426471 L28.4579577,26.3014706 L26.8706338,24.7269853 C26.3670489,24.2330641 25.6134062,24.1409188 25.0141549,24.5 C24.9177817,24.5579147 24.8295302,24.6294483 24.7519014,24.7125735 C24.68453,24.7726467 24.6263466,24.843117 24.5793662,24.9215441 C24.1906979,25.4821033 24.238502,26.2519749 24.6932394,26.7554412 L24.7519014,26.8166912 L27.8057746,29.8467647 C28.4023357,30.4279662 29.327946,30.4279662 29.924507,29.8467647 C30.2032554,29.574279 30.3614392,29.1933991 30.3614392,28.7947059 C30.3614392,28.3960127 30.2032554,28.0151328 29.924507,27.7426471 Z M29.924507,27.7426471 L28.4579577,26.3014706 L26.8706338,24.7269853 C26.3670489,24.2330641 25.6134062,24.1409188 25.0141549,24.5 C24.9177817,24.5579147 24.8295302,24.6294483 24.7519014,24.7125735 C24.68453,24.7726467 24.6263466,24.843117 24.5793662,24.9215441 C24.1906979,25.4821033 24.238502,26.2519749 24.6932394,26.7554412 L24.7519014,26.8166912 L27.8057746,29.8467647 C28.4023357,30.4279662 29.327946,30.4279662 29.924507,29.8467647 C30.2032554,29.574279 30.3614392,29.1933991 30.3614392,28.7947059 C30.3614392,28.3960127 30.2032554,28.0151328 29.924507,27.7426471 Z M29.924507,27.7426471 L28.4579577,26.3014706 L26.8706338,24.7269853 C26.3670489,24.2330641 25.6134062,24.1409188 25.0141549,24.5 C24.9177817,24.5579147 24.8295302,24.6294483 24.7519014,24.7125735 C24.68453,24.7726467 24.6263466,24.843117 24.5793662,24.9215441 C24.1906979,25.4821033 24.238502,26.2519749 24.6932394,26.7554412 L24.7519014,26.8166912 L27.8057746,29.8467647 C28.4023357,30.4279662 29.327946,30.4279662 29.924507,29.8467647 C30.2032554,29.574279 30.3614392,29.1933991 30.3614392,28.7947059 C30.3614392,28.3960127 30.2032554,28.0151328 29.924507,27.7426471 Z M29.924507,27.7426471 L28.4579577,26.3014706 L26.8706338,24.7269853 C26.3670489,24.2330641 25.6134062,24.1409188 25.0141549,24.5 C24.9177817,24.5579147 24.8295302,24.6294483 24.7519014,24.7125735 C24.68453,24.7726467 24.6263466,24.843117 24.5793662,24.9215441 C24.1906979,25.4821033 24.238502,26.2519749 24.6932394,26.7554412 L24.7519014,26.8166912 L27.8057746,29.8467647 C28.4023357,30.4279662 29.327946,30.4279662 29.924507,29.8467647 C30.2032554,29.574279 30.3614392,29.1933991 30.3614392,28.7947059 C30.3614392,28.3960127 30.2032554,28.0151328 29.924507,27.7426471 Z M29.924507,27.7426471 L28.4579577,26.3014706 L26.8706338,24.7269853 C26.3670489,24.2330641 25.6134062,24.1409188 25.0141549,24.5 C24.9177817,24.5579147 24.8295302,24.6294483 24.7519014,24.7125735 C24.68453,24.7726467 24.6263466,24.843117 24.5793662,24.9215441 C24.1906979,25.4821033 24.238502,26.2519749 24.6932394,26.7554412 L24.7519014,26.8166912 L27.8057746,29.8467647 C28.4023357,30.4279662 29.327946,30.4279662 29.924507,29.8467647 C30.2032554,29.574279 30.3614392,29.1933991 30.3614392,28.7947059 C30.3614392,28.3960127 30.2032554,28.0151328 29.924507,27.7426471 Z" id="Shape" fill="#F4A86F"></path>
                <path d="M46.1945775,35.4997794 L43.5375352,34.11625 C45.7234843,29.9457538 46.4251507,25.1020229 45.5182394,20.4430882 C44.9449961,17.4370469 43.7301448,14.6045909 41.9640141,12.1563235 L44.4278169,10.4557353 C46.4191981,13.2424081 47.7944819,16.4551644 48.4547887,19.8630147 C49.5026749,25.190162 48.7015158,30.7328013 46.1945775,35.4997794 L46.1945775,35.4997794 Z" id="Path" fill="#F2796E"></path>
                <path d="M44.4278169,10.4701471 L41.9640141,12.1707353 C37.7817606,6.30514706 30.7319718,2.76705882 23.2439437,3.19220588 L23.0576056,0.234191176 C31.6153521,-0.263014706 39.655493,3.76867647 44.4278169,10.4701471 Z" id="Path" fill="#6186BD"></path>
                <path d="M23.2439437,3.19220588 C22.2993468,3.25397604 21.3590988,3.37428603 20.428169,3.5525 C14.1423586,4.6872169 8.67314355,8.70043218 5.52112676,14.4910294 L2.86753521,13.1291176 C6.45363434,6.50700094 12.699119,1.91715468 19.879507,0.626911765 C20.9321066,0.425500422 21.9959288,0.294327777 23.064507,0.234191176 L23.2439437,3.19220588 Z" id="Path" fill="#D57FB3"></path>
                <path d="M6.85309859,36.5626471 L4.40309859,38.2704412 C2.45026418,35.5130158 1.10252415,32.3406674 0.455492958,28.9784559 C-0.587230912,23.5627032 0.270098537,17.9360285 2.87098592,13.1255147 L5.52112676,14.4910294 C3.23439656,18.7198037 2.48112906,23.6664404 3.39894366,28.4272059 C3.96431328,31.3709165 5.14362625,34.148508 6.85309859,36.5626471 L6.85309859,36.5626471 Z" id="Path" fill="#00A9DA"></path>
                <path d="M25.9527465,47.1985294 C25.9438613,47.6076334 25.7774138,47.9957274 25.4910292,48.2750832 C25.2046446,48.554439 24.8225026,48.7014705 24.4309859,48.6829412 C16.2459155,48.6829412 8.85450704,44.6296324 4.41690141,38.28125 L6.86690141,36.5734559 C10.9993297,42.3577419 17.5197425,45.7457305 24.4309859,45.6997059 L24.4551408,45.6997059 C24.8443804,45.6900478 25.2212534,45.8427771 25.5023321,46.1240844 C25.7834108,46.4053917 25.9455102,46.792073 25.9527465,47.1985294 Z" id="Path" fill="#D5E27E"></path>
            </g>
            <polygon id="Line" fill="#66686C" points="62 8 66 8 66 57 62 57"></polygon>
            <g id="Group" transform="translate(75.000000, 0.000000)" fill="#66686C">
                <path d="M18.848,33.688 L18.848,37.976 L12.288,37.976 L12.288,57 L6.88,57 L6.88,37.976 L0.32,37.976 L0.32,33.688 L18.848,33.688 Z M24.992,40.152 C26.0906722,40.152 27.0959954,40.322665 28.008,40.664 C28.9200046,41.005335 29.7039967,41.5013301 30.36,42.152 C31.0160033,42.8026699 31.5279982,43.5999953 31.896,44.544 C32.2640018,45.4880047 32.448,46.5573274 32.448,47.752 C32.448,48.1253352 32.4320002,48.4293322 32.4,48.664 C32.3679998,48.8986678 32.3093338,49.0853326 32.224,49.224 C32.1386662,49.3626674 32.0240007,49.4586664 31.88,49.512 C31.7359993,49.5653336 31.5520011,49.592 31.328,49.592 L21.76,49.592 C21.9200008,50.9786736 22.3413299,51.9839969 23.024,52.608 C23.7066701,53.2320031 24.5866613,53.544 25.664,53.544 C26.2400029,53.544 26.7359979,53.4746674 27.152,53.336 C27.5680021,53.1973326 27.938665,53.0426675 28.264,52.872 L29.16,52.408 L29.16,52.408 C29.4320014,52.2693326 29.7173318,52.2 30.016,52.2 C30.3613351,52.2 30.6331663,52.3102489 30.8314998,52.5307496 L32.352,54.408 C31.8399974,54.9946696 31.288003,55.4719982 30.696,55.84 C30.103997,56.2080018 29.4960031,56.495999 28.872,56.704 C28.2479969,56.912001 27.6240031,57.0559996 27,57.136 C26.3759969,57.2160004 25.7813362,57.256 25.216,57.256 C24.0533275,57.256 22.9626718,57.0666686 21.944,56.688 C20.9253282,56.3093314 20.0346705,55.7466704 19.272,55 C18.5093295,54.2533296 17.9066689,53.3253389 17.464,52.216 C17.0213311,51.1066611 16.8,49.8160074 16.8,48.344 C16.8,47.2346611 16.9893314,46.184005 17.368,45.192 C17.7466686,44.199995 18.2906631,43.3306704 19,42.584 C19.7093369,41.8373296 20.567995,41.2453355 21.576,40.808 C22.584005,40.3706645 23.7226603,40.152 24.992,40.152 Z M25.088,43.576 C24.1386619,43.576 23.397336,43.8453306 22.864,44.384 C22.330664,44.9226694 21.9786675,45.6986616 21.808,46.712 L28,46.712 C28,46.3173314 27.9493338,45.9333352 27.848,45.56 C27.7466662,45.1866648 27.5813345,44.8533348 27.352,44.56 C27.1226655,44.2666652 26.8213352,44.0293342 26.448,43.848 C26.0746648,43.6666658 25.621336,43.576 25.088,43.576 Z M47.264,44.344 C47.1146659,44.5253342 46.9706674,44.6693328 46.832,44.776 C46.6933326,44.8826672 46.4960013,44.936 46.24,44.936 C45.9946654,44.936 45.7733343,44.8773339 45.576,44.76 L44.912,44.368 L44.912,44.368 C44.6666654,44.2239993 44.3786683,44.0933339 44.048,43.976 C43.7173317,43.8586661 43.3066691,43.8 42.816,43.8 C42.208,43.8 41.6826689,43.9119989 41.24,44.136 C40.7973311,44.3600011 40.4320014,44.6799979 40.144,45.096 C39.8559986,45.5120021 39.6426674,46.0213303 39.504,46.624 C39.3653326,47.2266697 39.296,47.9066629 39.296,48.664 C39.296,50.2533413 39.6026636,51.4746624 40.216,52.328 C40.8293364,53.1813376 41.6746613,53.608 42.752,53.608 C43.3280029,53.608 43.7839983,53.5360007 44.12,53.392 C44.4560017,53.2479993 44.7413322,53.0880009 44.976,52.912 L45.624,52.424 L45.624,52.424 C45.8213343,52.2746659 46.0693318,52.2 46.368,52.2 C46.7133351,52.2 46.9851663,52.3102489 47.1834998,52.5307496 L48.704,54.408 C48.1919974,54.9946696 47.6533362,55.4719982 47.088,55.84 C46.5226638,56.2080018 45.944003,56.495999 45.352,56.704 C44.759997,56.912001 44.1653363,57.0559996 43.568,57.136 C42.9706637,57.2160004 42.3893362,57.256 41.824,57.256 C40.8106616,57.256 39.8426713,57.0640019 38.92,56.68 C37.9973287,56.2959981 37.1866702,55.7386703 36.488,55.008 C35.7893298,54.2773297 35.2346687,53.378672 34.824,52.312 C34.4133313,51.245328 34.208,50.0293402 34.208,48.664 C34.208,47.4693274 34.3866649,46.3520052 34.744,45.312 C35.1013351,44.2719948 35.6293298,43.3706705 36.328,42.608 C37.0266702,41.8453295 37.8906615,41.2453355 38.92,40.808 C39.9493385,40.3706645 41.1413266,40.152 42.496,40.152 C43.7973398,40.152 44.9386618,40.3599979 45.92,40.776 C46.9013382,41.1920021 47.7866627,41.799996 48.576,42.6 L47.264,44.344 Z M50.848,57 L50.848,33.048 L55.808,33.048 L55.808,41.864 C56.4053363,41.3519974 57.0533298,40.9386682 57.752,40.624 C58.4506702,40.3093318 59.2853285,40.152 60.256,40.152 C61.1626712,40.152 61.9653298,40.3093318 62.664,40.624 C63.3626702,40.9386682 63.9519976,41.3759972 64.432,41.936 C64.9120024,42.4960028 65.2746654,43.1626628 65.52,43.936 C65.7653346,44.7093372 65.888,45.5493288 65.888,46.456 L65.888,57 L60.928,57 L60.928,46.456 C60.928,45.6453293 60.7413352,45.0133356 60.368,44.56 C59.9946648,44.1066644 59.445337,43.88 58.72,43.88 C58.1759973,43.88 57.6640024,43.9973322 57.184,44.232 C56.7039976,44.4666678 56.2453355,44.7813314 55.808,45.176 L55.808,57 L50.848,57 Z M75.584,57 L75.584,33.688 L84.16,33.688 C85.7706747,33.688 87.1413277,33.8373318 88.272,34.136 C89.4026723,34.4346682 90.3253298,34.8559973 91.04,35.4 C91.7546702,35.9440027 92.274665,36.6053294 92.6,37.384 C92.925335,38.1626706 93.088,39.0319952 93.088,39.992 C93.088,40.5146693 93.0133341,41.0186642 92.864,41.504 C92.7146659,41.9893358 92.4800016,42.4453312 92.16,42.872 C91.8399984,43.2986688 91.4293358,43.6853316 90.928,44.032 C90.4266642,44.3786684 89.8240035,44.6799987 89.12,44.936 C90.6560077,45.3093352 91.7919963,45.9146625 92.528,46.752 C93.2640037,47.5893375 93.632,48.6639934 93.632,49.976 C93.632,50.968005 93.4400019,51.8906624 93.056,52.744 C92.6719981,53.5973376 92.109337,54.3413302 91.368,54.976 C90.626663,55.6106698 89.7120054,56.1066649 88.624,56.464 C87.5359946,56.8213351 86.2933403,57 84.896,57 L75.584,57 Z M80.992,47.112 L80.992,52.92 L84.8,52.92 C85.5146702,52.92 86.0986644,52.8293342 86.552,52.648 C87.0053356,52.4666658 87.3599987,52.2320014 87.616,51.944 C87.8720013,51.6559986 88.0479995,51.3306685 88.144,50.968 C88.2400005,50.6053315 88.288,50.2373352 88.288,49.864 C88.288,49.4373312 88.2320006,49.053335 88.12,48.712 C88.0079994,48.370665 87.8160014,48.0826678 87.544,47.848 C87.2719986,47.6133322 86.9120022,47.4320006 86.464,47.304 C86.0159978,47.1759994 85.4506701,47.112 84.768,47.112 L80.992,47.112 Z M80.992,43.496 L83.808,43.496 C84.4053363,43.496 84.9439976,43.4533338 85.424,43.368 C85.9040024,43.2826662 86.3119983,43.1333344 86.648,42.92 C86.9840017,42.7066656 87.2399991,42.4133352 87.416,42.04 C87.5920009,41.6666648 87.68,41.1973362 87.68,40.632 C87.68,40.0773306 87.6106674,39.6160018 87.472,39.248 C87.3333326,38.8799982 87.1200014,38.5840011 86.832,38.36 C86.5439986,38.1359989 86.1786689,37.9760005 85.736,37.88 C85.2933311,37.7839995 84.768003,37.736 84.16,37.736 L80.992,37.736 L80.992,43.496 Z M108.032,57 C107.562664,57 107.208001,56.9360006 106.968,56.808 C106.727999,56.6799994 106.528001,56.4133354 106.368,56.008 L106.016,55.096 C105.599998,55.4480018 105.200002,55.757332 104.816,56.024 C104.431998,56.290668 104.034669,56.5173324 103.624,56.704 C103.213331,56.8906676 102.776,57.0293329 102.312,57.12 C101.847998,57.2106671 101.333336,57.256 100.768,57.256 C100.010663,57.256 99.3226698,57.1573343 98.704,56.96 C98.0853302,56.7626657 97.5600022,56.4720019 97.128,56.088 C96.6959978,55.7039981 96.3626678,55.2266695 96.128,54.656 C95.8933322,54.0853305 95.776,53.4266704 95.776,52.68 C95.776,52.0933304 95.9253318,51.4906698 96.224,50.872 C96.5226682,50.2533302 97.0399963,49.6906692 97.776,49.184 C98.5120037,48.6773308 99.5039938,48.253335 100.752,47.912 C102.000006,47.570665 103.573324,47.3786669 105.472,47.336 L105.472,46.632 C105.472,45.6613285 105.272002,44.9600022 104.872,44.528 C104.471998,44.0959978 103.904004,43.88 103.168,43.88 C102.58133,43.88 102.101335,43.9439994 101.728,44.072 C101.447999,44.1680005 101.1905,44.2729998 100.9555,44.3869998 L100.728,44.504 C100.434665,44.6640008 100.149335,44.8079994 99.872,44.936 C99.5946653,45.0640006 99.2640019,45.128 98.88,45.128 C98.538665,45.128 98.2480012,45.0453342 98.008,44.88 C97.7679988,44.7146658 97.5786674,44.5093346 97.44,44.264 L96.544,42.712 C97.5466717,41.8266622 98.6586606,41.1680022 99.88,40.736 C101.101339,40.3039978 102.41066,40.088 103.808,40.088 C104.810672,40.088 105.714663,40.250665 106.52,40.576 C107.325337,40.901335 108.007997,41.3546638 108.568,41.936 C109.128003,42.5173362 109.557332,43.207996 109.856,44.008 C110.154668,44.808004 110.304,45.6826619 110.304,46.632 L110.304,57 L108.032,57 Z M102.336,53.976 C102.976003,53.976 103.535998,53.8640011 104.016,53.64 C104.496002,53.4159989 104.981331,53.0533358 105.472,52.552 L105.472,50.248 C104.479995,50.2906669 103.664003,50.3759994 103.024,50.504 C102.383997,50.6320006 101.877335,50.791999 101.504,50.984 C101.130665,51.176001 100.872001,51.3946654 100.728,51.64 C100.583999,51.8853346 100.512,52.1519986 100.512,52.44 C100.512,53.0053362 100.666665,53.4026655 100.976,53.632 C101.285335,53.8613345 101.738664,53.976 102.336,53.976 Z M113.824,57 L113.824,40.408 L116.896,40.408 C117.205335,40.408 117.463999,40.4773326 117.672,40.616 C117.880001,40.7546674 118.026666,40.9626653 118.112,41.24 L118.4,42.2 C118.720002,41.9013318 119.050665,41.6240013 119.392,41.368 C119.733335,41.1119987 120.098665,40.8960009 120.488,40.72 C120.877335,40.5439991 121.298664,40.4053338 121.752,40.304 C122.205336,40.2026662 122.698664,40.152 123.232,40.152 C124.138671,40.152 124.94133,40.3093318 125.64,40.624 C126.33867,40.9386682 126.927998,41.3759972 127.408,41.936 C127.888002,42.4960028 128.250665,43.1626628 128.496,43.936 C128.741335,44.7093372 128.864,45.5493288 128.864,46.456 L128.864,57 L123.904,57 L123.904,46.456 C123.904,45.6453293 123.717335,45.0133356 123.344,44.56 C122.970665,44.1066644 122.421337,43.88 121.696,43.88 C121.151997,43.88 120.640002,43.9973322 120.16,44.232 C119.679998,44.4666678 119.221336,44.7813314 118.784,45.176 L118.784,57 L113.824,57 Z M144.032,57 C143.722665,57 143.464001,56.9306674 143.256,56.792 C143.047999,56.6533326 142.901334,56.4453347 142.816,56.168 L142.432,54.904 C142.101332,55.2560018 141.754668,55.5759986 141.392,55.864 C141.029332,56.1520014 140.637335,56.399999 140.216,56.608 C139.794665,56.816001 139.341336,56.9759994 138.856,57.088 C138.370664,57.2000006 137.845336,57.256 137.28,57.256 C136.415996,57.256 135.616004,57.0640019 134.88,56.68 C134.143996,56.2959981 133.509336,55.741337 132.976,55.016 C132.442664,54.290663 132.024002,53.4026719 131.72,52.352 C131.415998,51.3013281 131.264,50.1040067 131.264,48.76 C131.264,47.5226605 131.434665,46.3733386 131.776,45.312 C132.117335,44.2506614 132.599997,43.3333372 133.224,42.56 C133.848003,41.7866628 134.597329,41.1813355 135.472,40.744 C136.346671,40.3066645 137.311995,40.088 138.368,40.088 C139.221338,40.088 139.943997,40.2133321 140.536,40.464 C141.128003,40.7146679 141.663998,41.0426646 142.144,41.448 L142.144,33.048 L147.104,33.048 L147.104,57 L144.032,57 Z M139.008,53.448 C139.370668,53.448 139.698665,53.4133337 139.992,53.344 C140.285335,53.2746663 140.554665,53.1760006 140.8,53.048 C141.045335,52.9199994 141.277332,52.760001 141.496,52.568 C141.714668,52.375999 141.930666,52.1520013 142.144,51.896 L142.144,44.856 C141.759998,44.4399979 141.352002,44.1493342 140.92,43.984 C140.487998,43.8186658 140.032002,43.736 139.552,43.736 C139.093331,43.736 138.672002,43.8266658 138.288,44.008 C137.903998,44.1893342 137.570668,44.479998 137.288,44.88 C137.005332,45.280002 136.784001,45.7999968 136.624,46.44 C136.463999,47.0800032 136.384,47.8533288 136.384,48.76 C136.384,49.634671 136.447999,50.3706637 136.576,50.968 C136.704001,51.5653363 136.882666,52.0479982 137.112,52.416 C137.341334,52.7840018 137.615998,53.0479992 137.936,53.208 C138.256002,53.3680008 138.613331,53.448 139.008,53.448 Z M150.944,57 L150.944,33.048 L155.904,33.048 L155.904,41.864 C156.501336,41.3519974 157.14933,40.9386682 157.848,40.624 C158.54667,40.3093318 159.381328,40.152 160.352,40.152 C161.258671,40.152 162.06133,40.3093318 162.76,40.624 C163.45867,40.9386682 164.047998,41.3759972 164.528,41.936 C165.008002,42.4960028 165.370665,43.1626628 165.616,43.936 C165.861335,44.7093372 165.984,45.5493288 165.984,46.456 L165.984,57 L161.024,57 L161.024,46.456 C161.024,45.6453293 160.837335,45.0133356 160.464,44.56 C160.090665,44.1066644 159.541337,43.88 158.816,43.88 C158.271997,43.88 157.760002,43.9973322 157.28,44.232 C156.799998,44.4666678 156.341336,44.7813314 155.904,45.176 L155.904,57 L150.944,57 Z M174.144,40.408 L174.144,50.936 C174.144,51.7573374 174.330665,52.3919978 174.704,52.84 C175.077335,53.2880022 175.626663,53.512 176.352,53.512 C176.896003,53.512 177.405331,53.4000011 177.88,53.176 C178.354669,52.9519989 178.815998,52.6373354 179.264,52.232 L179.264,40.408 L184.224,40.408 L184.224,57 L181.152,57 C180.53333,57 180.128001,56.7226694 179.936,56.168 L179.632,55.208 C179.311998,55.5173349 178.981335,55.7973321 178.64,56.048 C178.298665,56.2986679 177.933335,56.5119991 177.544,56.688 C177.154665,56.8640009 176.736002,57.0026662 176.288,57.104 C175.839998,57.2053338 175.349336,57.256 174.816,57.256 C173.909329,57.256 173.10667,57.0986682 172.408,56.784 C171.70933,56.4693318 171.120002,56.0293362 170.64,55.464 C170.159998,54.8986638 169.797335,54.2320038 169.552,53.464 C169.306665,52.6959962 169.184,51.8533379 169.184,50.936 L169.184,40.408 L174.144,40.408 Z" id="TechBandhu"></path>
                <path d="M5.436,24.192 C4.4759952,24.192 3.73800258,23.9240027 3.222,23.388 C2.70599742,22.8519973 2.448,22.080005 2.448,21.072 L2.448,13.632 L0.984,13.632 C0.85599936,13.632 0.74800044,13.5940004 0.66,13.518 C0.57199956,13.4419996 0.528,13.3240008 0.528,13.164 L0.528,12.312 L2.52,12.06 L3.012,8.304 C3.028,8.1839994 3.07999956,8.08600038 3.168,8.01 C3.25600044,7.93399962 3.36799932,7.896 3.504,7.896 L4.584,7.896 L4.584,12.084 L8.064,12.084 L8.064,13.632 L4.584,13.632 L4.584,20.928 C4.584,21.4400026 4.70799876,21.8199988 4.956,22.068 C5.20400124,22.3160012 5.52399804,22.44 5.916,22.44 C6.14000112,22.44 6.33399918,22.4100003 6.498,22.35 C6.66200082,22.2899997 6.8039994,22.2240004 6.924,22.152 L7.13999995,22.0160001 L7.13999995,22.0160001 L7.23,21.954 C7.31400042,21.8939997 7.38799968,21.864 7.452,21.864 C7.56400056,21.864 7.66399956,21.9319993 7.752,22.068 L8.376,23.088 C8.00799816,23.4320017 7.5640026,23.701999 7.044,23.898 C6.5239974,24.094001 5.98800276,24.192 5.436,24.192 Z M15.516,11.652 C16.2440036,11.652 16.9159969,11.7739988 17.532,12.018 C18.1480031,12.2620012 18.6799978,12.6139977 19.128,13.074 C19.5760022,13.5340023 19.9259987,14.1019966 20.178,14.778 C20.4300013,15.4540034 20.556,16.2239957 20.556,17.088 C20.556,17.4240017 20.5200004,17.6479994 20.448,17.76 C20.3759996,17.8720006 20.240001,17.928 20.04,17.928 L11.952,17.928 C11.9680001,18.6960038 12.071999,19.3639972 12.264,19.932 C12.456001,20.5000028 12.7199983,20.9739981 13.056,21.354 C13.3920017,21.7340019 13.7919977,22.0179991 14.256,22.206 C14.7200023,22.3940009 15.2399971,22.488 15.816,22.488 C16.3520027,22.488 16.8139981,22.4260006 17.202,22.302 C17.5900019,22.1779994 17.9239986,22.0440007 18.204,21.9 C18.4840014,21.7559993 18.7179991,21.6220006 18.906,21.498 C19.0940009,21.3739994 19.2559993,21.312 19.392,21.312 C19.5680009,21.312 19.7039995,21.3799993 19.8,21.516 L20.4,22.296 C20.1359987,22.6160016 19.8200018,22.8939988 19.452,23.13 C19.0839982,23.3660012 18.6900021,23.5599992 18.27,23.712 C17.8499979,23.8640008 17.4160022,23.9779996 16.968,24.054 C16.5199978,24.1300004 16.0760022,24.168 15.636,24.168 C14.7959958,24.168 14.0220035,24.0260014 13.314,23.742 C12.6059965,23.4579986 11.9940026,23.0420027 11.478,22.494 C10.9619974,21.9459973 10.5600014,21.268004 10.272,20.46 C9.98399856,19.652 9.84,18.7240052 9.84,17.676 C9.84,16.8279958 9.9699987,16.0360037 10.23,15.3 C10.4900013,14.5639963 10.8639976,13.9260027 11.352,13.386 C11.84,12.8459973 12.4359965,12.4220015 13.14,12.114 C13.8440035,11.8059985 14.6359956,11.652 15.516,11.652 Z M15.564,13.224 C14.5319948,13.224 13.720003,13.521997 13.128,14.118 C12.535997,14.714003 12.1680007,15.5399947 12.024,16.596 L18.636,16.596 C18.636,16.0999975 18.5680007,15.6460021 18.432,15.234 C18.2959993,14.8219979 18.0960013,14.4660015 17.832,14.166 C17.5679987,13.8659985 17.2460019,13.6340008 16.866,13.47 C16.4859981,13.3059992 16.0520024,13.224 15.564,13.224 Z M31.572,14.004 C31.5079997,14.0920004 31.4440003,14.1599998 31.38,14.208 C31.3159997,14.2560002 31.2240006,14.28 31.104,14.28 C30.9839994,14.28 30.8540007,14.2300005 30.714,14.13 C30.5739993,14.0299995 30.3960011,13.9200006 30.18,13.8 C29.9639989,13.6799994 29.7020015,13.5700005 29.394,13.47 C29.0859985,13.3699995 28.7080022,13.32 28.26,13.32 C27.667997,13.32 27.1440023,13.4259989 26.688,13.638 C26.2319977,13.8500011 25.8500015,14.155998 25.542,14.556 C25.2339985,14.956002 25.0020008,15.4399972 24.846,16.008 C24.6899992,16.5760028 24.612,17.2119965 24.612,17.916 C24.612,18.652 24.6959992,19.3059971 24.864,19.878 C25.0320008,20.4500029 25.2679985,20.9299981 25.572,21.318 C25.8760015,21.7060019 26.2459978,22.001999 26.682,22.206 C27.1180022,22.410001 27.6079973,22.512 28.152,22.512 C28.6720026,22.512 29.0999983,22.4500006 29.436,22.326 C29.7720017,22.2019994 30.0519989,22.0640008 30.276,21.912 C30.5000011,21.7599992 30.6839993,21.6220006 30.828,21.498 C30.9720007,21.3739994 31.1159993,21.312 31.26,21.312 C31.4072007,21.312 31.52368,21.3555196 31.6094399,21.4425597 L32.268,22.296 C31.7399974,22.9440032 31.080004,23.4179985 30.288,23.718 C29.495996,24.0180015 28.6600044,24.168 27.78,24.168 C27.0199962,24.168 26.3140033,24.0280014 25.662,23.748 C25.0099967,23.4679986 24.4440024,23.0620027 23.964,22.53 C23.4839976,21.9979973 23.1060014,21.3440039 22.83,20.568 C22.5539986,19.7919961 22.416,18.908005 22.416,17.916 C22.416,17.0119955 22.5419987,16.1760038 22.794,15.408 C23.0460013,14.6399962 23.4139976,13.9780028 23.898,13.422 C24.3820024,12.8659972 24.9799964,12.4320016 25.692,12.12 C26.4040036,11.8079984 27.2199954,11.652 28.14,11.652 C28.9880042,11.652 29.7399967,11.7899986 30.396,12.066 C31.0520033,12.3420014 31.6319975,12.7319975 32.136,13.236 L31.572,14.004 Z M34.488,24 L34.488,6.324 L36.624,6.324 L36.624,13.476 C37.1440026,12.9239972 37.7199968,12.4820017 38.352,12.15 C38.9840032,11.8179983 39.7119959,11.652 40.536,11.652 C41.2000033,11.652 41.7859975,11.7619989 42.294,11.982 C42.8020025,12.2020011 43.2259983,12.513998 43.566,12.918 C43.9060017,13.322002 44.1639991,13.8079972 44.34,14.376 C44.5160009,14.9440028 44.604,15.5719966 44.604,16.26 L44.604,24 L42.468,24 L42.468,16.26 C42.468,15.3399954 42.2580021,14.6260025 41.838,14.118 C41.4179979,13.6099975 40.7760043,13.356 39.912,13.356 C39.2799968,13.356 38.6900027,13.5079985 38.142,13.812 C37.5939973,14.1160015 37.0880023,14.5279974 36.624,15.048 L36.624,24 L34.488,24 Z M50.208,11.844 L50.208,24.9 C50.208,25.3880024 50.1440006,25.8419979 50.016,26.262 C49.8879994,26.6820021 49.6860014,27.0479984 49.41,27.36 C49.1339986,27.6720016 48.7780022,27.9179991 48.342,28.098 C47.9059978,28.2780009 47.384003,28.368 46.776,28.368 C46.5119987,28.368 46.2720011,28.3480002 46.056,28.308 C45.8399989,28.2679998 45.6240011,28.2080004 45.408,28.128 L45.504,26.976 C45.5200001,26.8719995 45.5559997,26.8060001 45.612,26.778 C45.6680003,26.7499999 45.7559994,26.736 45.876,26.736 L45.975,26.7375 L45.975,26.7375 L46.2453332,26.7473333 C46.2764443,26.7477778 46.3093332,26.748 46.344,26.748 C46.9680031,26.748 47.4119987,26.6020015 47.676,26.31 C47.9400013,26.0179985 48.072,25.5480032 48.072,24.9 L48.072,11.844 L50.208,11.844 Z M50.688,8.028 C50.688,8.23600104 50.6460004,8.4299991 50.562,8.61 C50.4779996,8.7900009 50.3660007,8.9499993 50.226,9.09 C50.0859993,9.2300007 49.9240009,9.3399996 49.74,9.42 C49.5559991,9.5000004 49.360001,9.54 49.152,9.54 C48.943999,9.54 48.7500009,9.5000004 48.57,9.42 C48.3899991,9.3399996 48.2300007,9.2300007 48.09,9.09 C47.9499993,8.9499993 47.8400004,8.7900009 47.76,8.61 C47.6799996,8.4299991 47.64,8.23600104 47.64,8.028 C47.64,7.81999896 47.6799996,7.62200094 47.76,7.434 C47.8400004,7.24599906 47.9499993,7.0820007 48.09,6.942 C48.2300007,6.8019993 48.3899991,6.6920004 48.57,6.612 C48.7500009,6.5319996 48.943999,6.492 49.152,6.492 C49.360001,6.492 49.5559991,6.5319996 49.74,6.612 C49.9240009,6.6920004 50.0859993,6.8019993 50.226,6.942 C50.3660007,7.0820007 50.4779996,7.24599906 50.562,7.434 C50.6460004,7.62200094 50.688,7.81999896 50.688,8.028 Z M58.848,11.652 C59.7360044,11.652 60.5379964,11.7999985 61.254,12.096 C61.9700036,12.3920015 62.5779975,12.8119973 63.078,13.356 C63.5780025,13.9000027 63.9619987,14.5579961 64.23,15.33 C64.4980013,16.1020039 64.632,16.9639952 64.632,17.916 C64.632,18.8760048 64.4980013,19.7399962 64.23,20.508 C63.9619987,21.2760038 63.5780025,21.9319973 63.078,22.476 C62.5779975,23.0200027 61.9700036,23.4379985 61.254,23.73 C60.5379964,24.0220015 59.7360044,24.168 58.848,24.168 C57.9599956,24.168 57.1580036,24.0220015 56.442,23.73 C55.7259964,23.4379985 55.1160025,23.0200027 54.612,22.476 C54.1079975,21.9319973 53.7200014,21.2760038 53.448,20.508 C53.1759986,19.7399962 53.04,18.8760048 53.04,17.916 C53.04,16.9639952 53.1759986,16.1020039 53.448,15.33 C53.7200014,14.5579961 54.1079975,13.9000027 54.612,13.356 C55.1160025,12.8119973 55.7259964,12.3920015 56.442,12.096 C57.1580036,11.7999985 57.9599956,11.652 58.848,11.652 Z M58.848,22.5 C60.048006,22.5 60.943997,22.098004 61.536,21.294 C62.128003,20.489996 62.424,19.3680072 62.424,17.928 C62.424,16.4799928 62.128003,15.352004 61.536,14.544 C60.943997,13.735996 60.048006,13.332 58.848,13.332 C58.239997,13.332 57.7120022,13.435999 57.264,13.644 C56.8159978,13.852001 56.4420015,14.151998 56.142,14.544 C55.8419985,14.936002 55.6180007,15.4179971 55.47,15.99 C55.3219993,16.5620029 55.248,17.2079964 55.248,17.928 C55.248,18.6480036 55.3219993,19.2919972 55.47,19.86 C55.6180007,20.4280028 55.8419985,20.9059981 56.142,21.294 C56.4420015,21.6820019 56.8159978,21.979999 57.264,22.188 C57.7120022,22.396001 58.239997,22.5 58.848,22.5 Z M75.564,14.004 C75.4999997,14.0920004 75.4360003,14.1599998 75.372,14.208 C75.3079997,14.2560002 75.2160006,14.28 75.096,14.28 C74.9759994,14.28 74.8460007,14.2300005 74.706,14.13 C74.5659993,14.0299995 74.3880011,13.9200006 74.172,13.8 C73.9559989,13.6799994 73.6940015,13.5700005 73.386,13.47 C73.0779985,13.3699995 72.7000022,13.32 72.252,13.32 C71.659997,13.32 71.1360023,13.4259989 70.68,13.638 C70.2239977,13.8500011 69.8420015,14.155998 69.534,14.556 C69.2259985,14.956002 68.9940008,15.4399972 68.838,16.008 C68.6819992,16.5760028 68.604,17.2119965 68.604,17.916 C68.604,18.652 68.6879992,19.3059971 68.856,19.878 C69.0240008,20.4500029 69.2599985,20.9299981 69.564,21.318 C69.8680015,21.7060019 70.2379978,22.001999 70.674,22.206 C71.1100022,22.410001 71.5999973,22.512 72.144,22.512 C72.6640026,22.512 73.0919983,22.4500006 73.428,22.326 C73.7640017,22.2019994 74.0439989,22.0640008 74.268,21.912 C74.4920011,21.7599992 74.6759993,21.6220006 74.82,21.498 C74.9640007,21.3739994 75.1079993,21.312 75.252,21.312 C75.4360009,21.312 75.5719996,21.3799993 75.66,21.516 L76.26,22.296 C75.7319974,22.9440032 75.072004,23.4179985 74.28,23.718 C73.487996,24.0180015 72.6520044,24.168 71.772,24.168 C71.0119962,24.168 70.3060033,24.0280014 69.654,23.748 C69.0019967,23.4679986 68.4360024,23.0620027 67.956,22.53 C67.4759976,21.9979973 67.0980014,21.3440039 66.822,20.568 C66.5459986,19.7919961 66.408,18.908005 66.408,17.916 C66.408,17.0119955 66.5339987,16.1760038 66.786,15.408 C67.0380013,14.6399962 67.4059976,13.9780028 67.89,13.422 C68.3740024,12.8659972 68.9719964,12.4320016 69.684,12.12 C70.3960036,11.8079984 71.2119954,11.652 72.132,11.652 C72.9800042,11.652 73.7319967,11.7899986 74.388,12.066 C75.0440033,12.3420014 75.6239975,12.7319975 76.128,13.236 L75.564,14.004 Z M80.7,6.324 L80.7,16.728 L81.252,16.728 C81.4120008,16.728 81.5439995,16.7060002 81.648,16.662 C81.7520005,16.6179998 81.8679994,16.5280007 81.996,16.392 L85.836,12.276 C85.9560006,12.1479994 86.0759994,12.0440004 86.196,11.964 C86.3160006,11.8839996 86.475999,11.844 86.676,11.844 L88.62,11.844 L84.144,16.608 C84.0319994,16.7440007 83.9220005,16.8639995 83.814,16.968 C83.7059995,17.0720005 83.5840007,17.1639996 83.448,17.244 C83.5920007,17.3400005 83.7219994,17.4499994 83.838,17.574 C83.9540006,17.6980006 84.0639995,17.8399992 84.168,18 L88.92,24 L87,24 C86.8239991,24 86.6740006,23.9660003 86.55,23.898 C86.4259994,23.8299997 86.3080006,23.7240007 86.196,23.58 L82.2,18.6 C82.0799994,18.4319992 81.9600006,18.3220003 81.84,18.27 C81.7199994,18.2179997 81.5400012,18.192 81.3,18.192 L80.7,18.192 L80.7,24 L78.552,24 L78.552,6.324 L80.7,6.324 Z M95.148,11.652 C95.8760036,11.652 96.5479969,11.7739988 97.164,12.018 C97.7800031,12.2620012 98.3119978,12.6139977 98.76,13.074 C99.2080022,13.5340023 99.5579987,14.1019966 99.81,14.778 C100.062001,15.4540034 100.188,16.2239957 100.188,17.088 C100.188,17.4240017 100.152,17.6479994 100.08,17.76 C100.008,17.8720006 99.872001,17.928 99.672,17.928 L91.584,17.928 C91.6000001,18.6960038 91.703999,19.3639972 91.896,19.932 C92.088001,20.5000028 92.3519983,20.9739981 92.688,21.354 C93.0240017,21.7340019 93.4239977,22.0179991 93.888,22.206 C94.3520023,22.3940009 94.8719971,22.488 95.448,22.488 C95.9840027,22.488 96.4459981,22.4260006 96.834,22.302 C97.2220019,22.1779994 97.5559986,22.0440007 97.836,21.9 C98.1160014,21.7559993 98.3499991,21.6220006 98.538,21.498 C98.7260009,21.3739994 98.8879993,21.312 99.024,21.312 C99.2000009,21.312 99.3359995,21.3799993 99.432,21.516 L100.032,22.296 C99.7679987,22.6160016 99.4520018,22.8939988 99.084,23.13 C98.7159982,23.3660012 98.3220021,23.5599992 97.902,23.712 C97.4819979,23.8640008 97.0480022,23.9779996 96.6,24.054 C96.1519978,24.1300004 95.7080022,24.168 95.268,24.168 C94.4279958,24.168 93.6540035,24.0260014 92.946,23.742 C92.2379965,23.4579986 91.6260026,23.0420027 91.11,22.494 C90.5939974,21.9459973 90.1920014,21.268004 89.904,20.46 C89.6159986,19.652 89.472,18.7240052 89.472,17.676 C89.472,16.8279958 89.6019987,16.0360037 89.862,15.3 C90.1220013,14.5639963 90.4959976,13.9260027 90.984,13.386 C91.472,12.8459973 92.0679965,12.4220015 92.772,12.114 C93.4760035,11.8059985 94.2679956,11.652 95.148,11.652 Z M95.196,13.224 C94.1639948,13.224 93.352003,13.521997 92.76,14.118 C92.167997,14.714003 91.8000007,15.5399947 91.656,16.596 L98.268,16.596 C98.268,16.0999975 98.2000007,15.6460021 98.064,15.234 C97.9279993,14.8219979 97.7280013,14.4660015 97.464,14.166 C97.1999987,13.8659985 96.8780019,13.6340008 96.498,13.47 C96.1179981,13.3059992 95.6840024,13.224 95.196,13.224 Z M106.164,27.588 C106.092,27.7480008 106.002001,27.8759995 105.894,27.972 C105.785999,28.0680005 105.620001,28.116 105.396,28.116 L103.812,28.116 L106.032,23.292 L101.016,11.844 L102.864,11.844 C103.048001,11.844 103.191999,11.8899995 103.296,11.982 C103.400001,12.0740005 103.476,12.1759994 103.524,12.288 L106.776,19.944 C106.848,20.1200009 106.91,20.2959991 106.962,20.472 C107.014,20.6480009 107.06,20.8279991 107.1,21.012 L107.268,20.472 L107.268,20.472 C107.324,20.2959991 107.388,20.1160009 107.46,19.932 L110.616,12.288 C110.664,12.1599994 110.745999,12.0540004 110.862,11.97 C110.978001,11.8859996 111.103999,11.844 111.24,11.844 L112.944,11.844 L106.164,27.588 Z" id="techjockey"></path>
            </g>
        </g>
    </g>
</svg>