<?xml version="1.0" encoding="UTF-8"?>
<svg width="20px" height="20px" viewBox="0 0 20 20" version="1.1" xmlns="http://www.w3.org/2000/svg" xmlns:xlink="http://www.w3.org/1999/xlink">
    <!-- Generator: Sketch 58 (84663) - https://sketch.com -->
    <title>cp-home-filter-cat</title>
    <desc>Created with Sketch.</desc>
    <g id="cp-home-filter-cat" stroke="none" stroke-width="1" fill="none" fill-rule="evenodd">
        <g id="list" fill="#472DC2" fill-rule="nonzero">
            <path d="M9.99973333,0 C4.47713333,0 6.66666667e-05,4.4774 6.66666667e-05,9.9998 C6.66666667e-05,15.5224667 4.47713333,20 9.99973333,20 C15.5223333,20 19.9999333,15.5224667 19.9999333,9.9998 C19.9999333,4.47713333 15.5223333,0 9.99973333,0 Z M6.0212,13.6308667 C5.6394,13.6308667 5.33046667,13.3218667 5.33046667,12.9399333 C5.33046667,12.5583333 5.63946667,12.2493333 6.0212,12.2493333 C6.4028,12.2493333 6.71193333,12.5583333 6.71193333,12.9399333 C6.71193333,13.3218667 6.4028,13.6308667 6.0212,13.6308667 Z M6.0212,10.6907333 C5.6394,10.6907333 5.33046667,10.3817333 5.33046667,9.9996 C5.33046667,9.618 5.63946667,9.309 6.0212,9.309 C6.4028,9.309 6.71193333,9.618 6.71193333,9.9996 C6.71193333,10.3818 6.4028,10.6907333 6.0212,10.6907333 Z M6.0212,7.75066667 C5.6394,7.75066667 5.33046667,7.44166667 5.33046667,7.05973333 C5.33046667,6.67813333 5.63946667,6.36913333 6.0212,6.36913333 C6.4028,6.36913333 6.71193333,6.67813333 6.71193333,7.05973333 C6.71193333,7.44166667 6.4028,7.75066667 6.0212,7.75066667 Z M14.6696,13.5876 L8.1934,13.5876 C7.81146667,13.5876 7.5018,13.2779333 7.5018,12.896 C7.5018,12.5140667 7.81146667,12.2044 8.1934,12.2044 L14.6696,12.2044 C15.0515333,12.2044 15.3612,12.5140667 15.3612,12.896 C15.3612,13.2779333 15.0515333,13.5876 14.6696,13.5876 Z M14.6696,10.6698667 L8.1934,10.6698667 C7.81146667,10.6698667 7.5018,10.3602 7.5018,9.97826667 C7.5018,9.59633333 7.81146667,9.28666667 8.1934,9.28666667 L14.6696,9.28666667 C15.0515333,9.28666667 15.3612,9.59633333 15.3612,9.97826667 C15.3612,10.3601333 15.0515333,10.6698667 14.6696,10.6698667 Z M14.6696,7.75206667 L8.1934,7.75206667 C7.81146667,7.75206667 7.5018,7.4424 7.5018,7.06046667 C7.5018,6.67853333 7.81146667,6.36886667 8.1934,6.36886667 L14.6696,6.36886667 C15.0515333,6.36886667 15.3612,6.67853333 15.3612,7.06046667 C15.3612,7.4424 15.0515333,7.75206667 14.6696,7.75206667 Z" id="Shape"></path>
        </g>
    </g>
</svg>