<?xml version="1.0" encoding="UTF-8"?>
<svg width="35px" height="35px" viewBox="0 0 35 35" version="1.1" xmlns="http://www.w3.org/2000/svg" xmlns:xlink="http://www.w3.org/1999/xlink">
    <!-- Generator: Sketch 58 (84663) - https://sketch.com -->
    <title>device</title>
    <desc>Created with Sketch.</desc>
    <defs>
        <linearGradient x1="19.7909899%" y1="8.88133494%" x2="50%" y2="54.5810006%" id="linearGradient-1">
            <stop stop-color="#FF7B68" offset="0%"></stop>
            <stop stop-color="#FD8D4B" offset="100%"></stop>
        </linearGradient>
    </defs>
    <g id="device" stroke="none" stroke-width="1" fill="none" fill-rule="evenodd">
        <g id="Group-24" transform="translate(1.000000, 1.000000)">
            <g id="Group-9" fill="url(#linearGradient-1)">
                <rect id="Rectangle" x="0" y="0" width="33" height="33" rx="15"></rect>
            </g>
            <g id="desktop-monitor" transform="translate(7.000000, 9.000000)" fill="#FFFFFF" fill-rule="nonzero">
                <path d="M17.2339345,0.472955342 C16.9565312,0.190533385 16.6231821,0.0491803279 16.2334529,0.0491803279 L2.06687416,0.0491803279 C1.67730007,0.0491803279 1.3438889,0.190533385 1.06629953,0.472955342 C0.788865216,0.755472018 0.650210084,1.09488354 0.650210084,1.4915372 L0.650210084,11.299204 C0.650210084,11.6959524 0.788865216,12.0353323 1.06629953,12.3179122 C1.3438889,12.6003341 1.67730007,12.7414346 2.06687416,12.7414346 L6.88361266,12.7414346 C6.88361266,12.9697401 6.83635021,13.2043288 6.74188733,13.4445374 C6.64748647,13.6849355 6.5530236,13.8951812 6.45856072,14.0754008 C6.36422189,14.2558414 6.31699045,14.3878804 6.31699045,14.4719597 C6.31699045,14.6281838 6.37302932,14.7636958 6.48520012,14.8775802 C6.59730889,14.9919066 6.73013374,15.0491803 6.88361266,15.0491803 L11.4169315,15.0491803 C11.5704104,15.0491803 11.7032663,14.9919382 11.8153751,14.8775802 C11.9276389,14.7637273 11.9836778,14.6282153 11.9836778,14.4719597 C11.9836778,14.3940372 11.9363533,14.2632295 11.8419214,14.0799789 C11.7474585,13.896823 11.6529957,13.6832305 11.5586568,13.4400856 C11.464194,13.1966565 11.4169625,12.9638044 11.4169625,12.7414346 L16.233701,12.7414346 C16.6232131,12.7414346 16.9565622,12.6003341 17.2339655,12.3179122 C17.5114929,12.0353639 17.6502101,11.695984 17.6502101,11.299204 L17.6502101,1.4915372 C17.6502101,1.09488354 17.5114619,0.755472018 17.2339345,0.472955342 Z M16.5168416,8.99148984 C16.5168416,9.06963342 16.4888376,9.13713685 16.4327677,9.19431585 C16.3766358,9.25127384 16.3102079,9.27978441 16.2334529,9.27978441 L2.06687416,9.27978441 C1.99018122,9.27978441 1.92375329,9.25127384 1.8676834,9.19431585 C1.81164452,9.13694741 1.78357856,9.06963342 1.78357856,8.99148984 L1.78357856,1.4915372 C1.78357856,1.41339362 1.81155148,1.34582705 1.8676834,1.28874277 C1.9237843,1.2317532 1.99021223,1.20311634 2.06687416,1.20311634 L16.23367,1.20311634 C16.3103009,1.20311634 16.3768529,1.23165848 16.4327677,1.28874277 C16.4888376,1.34585862 16.5168416,1.41342519 16.5168416,1.4915372 L16.5168416,8.99148984 L16.5168416,8.99148984 Z" id="Shape"></path>
            </g>
        </g>
    </g>
</svg>