<?xml version="1.0" encoding="UTF-8"?>
<svg width="35px" height="35px" viewBox="0 0 35 35" version="1.1" xmlns="http://www.w3.org/2000/svg" xmlns:xlink="http://www.w3.org/1999/xlink">
    <!-- Generator: Sketch 58 (84663) - https://sketch.com -->
    <title>language</title>
    <desc>Created with Sketch.</desc>
    <defs>
        <linearGradient x1="26.7843535%" y1="9.62186027%" x2="50%" y2="50%" id="linearGradient-1">
            <stop stop-color="#82EF38" offset="0%"></stop>
            <stop stop-color="#2ECC36" offset="100%"></stop>
        </linearGradient>
    </defs>
    <g id="language" stroke="none" stroke-width="1" fill="none" fill-rule="evenodd">
        <g id="Group-26" transform="translate(1.000000, 1.000000)">
            <g id="Group-8" fill="url(#linearGradient-1)">
                <rect id="Rectangle" x="0" y="0" width="33" height="33" rx="15"></rect>
            </g>
            <g id="translate-(1)" transform="translate(5.000000, 7.000000)" fill="#FFFFFF" fill-rule="nonzero">
                <path d="M15.2662913,12.298697 C15.2016935,12.0951674 14.9359696,12 14.6630876,12 C14.3973637,12 14.1316398,12.0951674 14.067042,12.298697 L12.6809829,16.5658915 C12.6738248,16.5931057 12.6666667,16.620155 12.6666667,16.6336797 C12.6666667,16.8508989 13.0041465,17 13.2555541,17 C13.4135568,17 13.5355942,16.9526637 13.5715595,16.8236847 L13.8442669,15.9213261 L15.4888918,15.9213261 L15.7619484,16.8236847 C15.7977391,16.9526637 15.9197765,17 16.0777792,17 C16.3291868,17 16.6666667,16.8441366 16.6666667,16.6336797 C16.6666667,16.6133927 16.6595085,16.5929408 16.6523504,16.5658915 L15.2662913,12.298697 Z M14.0382349,15.2292594 L14.662913,13.1466271 L15.2879403,15.2292594 L14.0382349,15.2292594 Z" id="Shape"></path>
                <path d="M18.5118205,8.15887453 L12.5076396,8.15887453 L12.5076396,5.59448242 L14.4589335,4.20074461 C14.6128947,4.09072875 14.7042948,3.91326906 14.7042948,3.72406008 C14.7042948,3.53469848 14.6128947,3.35723875 14.4589335,3.24722289 L12.484141,1.83670043 C12.3298747,0.798797617 11.4328105,0 10.3527934,0 L2.82166546,0 C1.63331096,0 0.666666667,0.966644297 0.666666667,2.15499879 L0.666666667,9.6862793 C0.666666667,10.8744812 1.63331096,11.8411255 2.82166546,11.8411255 L8.82569378,11.8411255 L8.82569378,14.4055176 L6.87439983,15.7992554 C6.72043862,15.9092713 6.6290385,16.0868836 6.6290385,16.2760925 C6.6290385,16.4653015 6.72043862,16.6429138 6.87439983,16.7527771 L8.84919229,18.1632996 C9.00345866,19.2012024 9.90052288,20 10.9805399,20 L18.5118205,20 C19.7000224,20 20.6666667,19.0332031 20.6666667,17.8450012 L20.6666667,10.3138733 C20.6666667,9.12551879 19.7000224,8.15887453 18.5118205,8.15887453 Z M2.82166546,10.6692505 C2.27952065,10.6692505 1.83854167,10.2282715 1.83854167,9.68612672 L1.83854167,2.15484617 C1.83854167,1.61285398 2.27952065,1.171875 2.82166546,1.171875 L10.3527934,1.171875 C10.8947856,1.171875 11.3357646,1.61285398 11.3357646,2.15484617 C11.3357646,2.34420777 11.4271647,2.52182008 11.5811259,2.63168336 L13.1102092,3.72390746 L11.5811259,4.8161316 C11.4271647,4.92614746 11.3357646,5.10375977 11.3357646,5.29296875 L11.3357646,8.15887453 L10.9805399,8.15887453 C9.79233807,8.15887453 8.82569378,9.12551879 8.82569378,10.3137207 L8.82569378,10.6692505 L2.82166546,10.6692505 Z M19.4947917,17.8450012 C19.4947917,18.387146 19.0538127,18.828125 18.5118205,18.828125 L10.9805399,18.828125 C10.4385478,18.828125 9.99756878,18.387146 9.99756878,17.8450012 C9.99756878,17.6557922 9.90616862,17.4781799 9.75220745,17.3683166 L8.22312417,16.2760925 L9.75220745,15.1838684 C9.90616862,15.0738525 9.99756878,14.8962402 9.99756878,14.7070313 L9.99756878,10.3138733 C9.99756878,9.77172852 10.4385478,9.33074953 10.9805399,9.33074953 L11.9201762,9.33074953 L11.9217021,9.33074953 L11.923228,9.33074953 L18.5118205,9.33074953 C19.0538127,9.33074953 19.4947917,9.77172852 19.4947917,10.3138733 L19.4947917,17.8450012 Z" id="Shape"></path>
                <path d="M8.27904896,4.93891015 C8.49299958,4.93891015 8.66666667,4.7789286 8.66666667,4.58167302 C8.66666667,4.38441745 8.49299958,4.22443594 8.27904896,4.22443594 L6.55437393,4.22443594 L6.55437393,3.35723708 C6.55437393,3.15998151 6.38070685,3 6.16657715,3 C5.95262649,3 5.77895945,3.15998151 5.77895945,3.35723708 L5.77895945,4.22443594 L4.05428437,4.22443594 C3.84033375,4.22443594 3.66666667,4.38441745 3.66666667,4.58167302 C3.66666667,4.7789286 3.84033375,4.93891015 4.05428437,4.93891015 L4.58871345,4.93891015 C4.67411467,5.69313233 5.02717801,6.37478557 5.55820531,6.9027246 C5.11795039,7.14550069 4.60375266,7.28569071 4.05428437,7.28569071 C3.84033375,7.28569071 3.66666667,7.4455073 3.66666667,7.64276288 C3.66666667,7.84001845 3.84033375,8 4.05428437,8 C4.83882982,8 5.56662011,7.77404669 6.16657715,7.38976118 C6.76671322,7.77404669 7.49450352,8 8.27904896,8 C8.49299958,8 8.66666667,7.84001845 8.66666667,7.64276288 C8.66666667,7.4455073 8.49299958,7.28569071 8.27904896,7.28569071 C7.72958067,7.28569071 7.21538294,7.14583057 6.77512803,6.9027246 C7.30615533,6.37478557 7.65921867,5.69313233 7.74461993,4.93891015 L8.27904896,4.93891015 Z M6.16657715,6.45642564 C5.74243565,6.05086421 5.45436319,5.52424461 5.37003618,4.93891015 L6.96329715,4.93891015 C6.87897019,5.52424461 6.59089768,6.05086421 6.16657715,6.45642564 Z" id="Shape"></path>
            </g>
        </g>
    </g>
</svg>