<?xml version="1.0" encoding="UTF-8"?>
<svg width="35px" height="35px" viewBox="0 0 35 35" version="1.1" xmlns="http://www.w3.org/2000/svg" xmlns:xlink="http://www.w3.org/1999/xlink">
    <!-- Generator: Sketch 58 (84663) - https://sketch.com -->
    <title>Reward-Earn upto</title>
    <desc>Created with Sketch.</desc>
    <g id="Reward-Earn-upto" stroke="none" stroke-width="1" fill="none" fill-rule="evenodd">
        <g id="gift-(3)" transform="translate(5.000000, 6.000000)" fill-rule="nonzero">
            <path d="M20.0847575,1.50071337 C19.6165567,0.560704232 18.6415424,0 17.4801309,0 C14.8330823,0 12.9556906,2.79624149 12.0344398,4.56071608 C11.1108514,2.79776514 9.23657645,0.0177759494 6.59472235,0.0177759494 C4.91887867,0.0177759494 3.7037037,1.18514794 3.7037037,2.76813856 C3.7037037,5.5755535 6.44243589,7.40740741 11.9480373,7.40740741 C17.4536388,7.40740741 20.3703704,5.05336382 20.3703704,2.79116264 C20.3695912,2.34219295 20.2855263,1.90143405 20.0847575,1.50071337 Z M7.06145135,4.2873897 C6.25993455,3.81920505 5.97432168,3.29481454 5.97432168,2.95851051 C5.97432168,2.52892507 6.44174329,2.21776131 7.08569252,2.21776131 C8.63730023,2.21776131 10.6222188,4.70961082 11.28963,5.92887165 C9.50167091,5.79851469 7.67206898,4.64443234 7.06145135,4.2873897 Z M17.9899745,3.35779219 C17.5876578,4.15186925 15.4603224,5.73409804 12.802625,5.92810983 C13.4731529,4.70884899 15.4617942,2.21699948 16.9891607,2.21699948 C17.5801257,2.21699948 17.919502,2.46738642 18.0376777,2.70143642 C18.1316122,2.88816854 18.1157689,3.10960608 17.9899745,3.35779219 Z" id="Shape" fill="#F5A623"></path>
            <path d="M25,8.33333333 L0,8.33333333 L0,14.3954505 L0.78126116,14.3954505 L0.78126116,25 L24.2187388,25 L24.2187388,14.395537 L25,14.395537 C25,14.395537 25,8.33333333 25,8.33333333 Z" id="Path" fill="#47AD9D"></path>
            <polygon id="Path" fill="#D7B354" points="0.925925926 13.8888889 24.0740741 13.8888889 24.0740741 15.7407407 0.925925926 15.7407407"></polygon>
            <path d="M11.1111111,8.33333333 L13.8888889,8.33333333 L13.8888889,25 L11.1111111,25 C11.1111111,25 11.1111111,8.33333333 11.1111111,8.33333333 Z" id="Path" fill="#F5A623"></path>
        </g>
    </g>
</svg>