<?xml version="1.0" encoding="UTF-8"?>
<svg width="24px" height="24px" viewBox="0 0 24 24" version="1.1" xmlns="http://www.w3.org/2000/svg" xmlns:xlink="http://www.w3.org/1999/xlink">
    <!-- Generator: Sketch 57.1 (83088) - https://sketch.com -->
    <title>mute</title>
    <desc>Created with Sketch.</desc>
    <g id="mute" stroke="none" stroke-width="1" fill="none" fill-rule="evenodd">
        <g id="volume-off-indicator" transform="translate(2.000000, 2.000000)" fill="#FFFFFF" fill-rule="nonzero">
            <path d="M14.8532468,9.94472983 C14.8532468,7.95578387 13.7976912,6.2983289 12.2143579,5.52484991 L12.2143579,7.95578387 L14.8532468,10.7182088 C14.8532468,10.3867178 14.8532468,10.1657238 14.8532468,9.94472983 Z M17.4921356,9.94472983 C17.4921356,10.9392028 17.2810245,11.9336758 16.9643579,12.8176518 L18.5476912,14.4751068 C19.2865801,13.1491428 19.6032468,11.4916878 19.6032468,9.83423284 C19.6032468,5.08286192 16.4365801,1.10496998 12.2143579,0.110496998 L12.2143579,2.43093396 C15.275469,3.53590394 17.4921356,6.40882589 17.4921356,9.94472983 Z M1.97546898,0 L0.603246753,1.43646098 L5.56435786,6.62981989 L0.603246753,6.62981989 L0.603246753,13.2596398 L4.82546898,13.2596398 L10.1032468,18.7844897 L10.1032468,11.3811908 L14.6421356,16.1325617 C13.9032054,16.6850467 13.1643579,17.1270347 12.2143579,17.458569 L12.2143579,19.779006 C13.6921356,19.447515 14.9588023,18.784533 16.1199134,17.79006 L18.2310245,20 L19.6032468,18.5635824 L10.1032468,8.61885252 L1.97546898,0 Z M10.1032468,1.10496998 L7.88658009,3.42540694 L10.1032468,5.7458439 L10.1032468,1.10496998 L10.1032468,1.10496998 Z" id="Shape"></path>
        </g>
    </g>
</svg>